G04 EAGLE Gerber RS-274X export*
G75*
%MOMM*%
%FSLAX34Y34*%
%LPD*%
%INBottom Copper*%
%IPPOS*%
%AMOC8*
5,1,8,0,0,1.08239X$1,22.5*%
G01*
%ADD10P,1.429621X8X22.500000*%
%ADD11P,1.429621X8X292.500000*%
%ADD12C,1.524000*%
%ADD13P,1.429621X8X202.500000*%
%ADD14P,1.429621X8X112.500000*%
%ADD15C,1.314200*%
%ADD16R,1.300000X1.300000*%
%ADD17R,2.100000X2.100000*%
%ADD18R,1.524000X1.524000*%
%ADD19C,1.524000*%
%ADD20C,0.756400*%
%ADD21C,0.304800*%
%ADD22C,0.152400*%

G36*
X101726Y157241D02*
X101726Y157241D01*
X101852Y157248D01*
X101898Y157261D01*
X101946Y157267D01*
X102065Y157309D01*
X102187Y157344D01*
X102229Y157368D01*
X102274Y157384D01*
X102381Y157453D01*
X102491Y157514D01*
X102537Y157554D01*
X102567Y157573D01*
X102601Y157608D01*
X102677Y157673D01*
X115377Y170373D01*
X115456Y170472D01*
X115540Y170566D01*
X115564Y170608D01*
X115594Y170646D01*
X115648Y170760D01*
X115709Y170871D01*
X115722Y170917D01*
X115743Y170961D01*
X115769Y171084D01*
X115804Y171206D01*
X115809Y171267D01*
X115816Y171302D01*
X115815Y171350D01*
X115823Y171450D01*
X115823Y234319D01*
X166177Y284673D01*
X166256Y284772D01*
X166340Y284866D01*
X166364Y284908D01*
X166394Y284946D01*
X166448Y285060D01*
X166509Y285171D01*
X166522Y285217D01*
X166543Y285261D01*
X166569Y285384D01*
X166604Y285506D01*
X166609Y285567D01*
X166616Y285602D01*
X166615Y285650D01*
X166623Y285750D01*
X166623Y317500D01*
X166609Y317626D01*
X166602Y317752D01*
X166589Y317798D01*
X166583Y317846D01*
X166541Y317965D01*
X166506Y318087D01*
X166482Y318129D01*
X166466Y318174D01*
X166397Y318281D01*
X166336Y318391D01*
X166296Y318437D01*
X166277Y318467D01*
X166242Y318501D01*
X166177Y318577D01*
X121727Y363027D01*
X121628Y363106D01*
X121534Y363190D01*
X121492Y363214D01*
X121454Y363244D01*
X121340Y363298D01*
X121229Y363359D01*
X121183Y363372D01*
X121139Y363393D01*
X121016Y363419D01*
X120894Y363454D01*
X120833Y363459D01*
X120798Y363466D01*
X120750Y363465D01*
X120650Y363473D01*
X44450Y363473D01*
X44424Y363470D01*
X44398Y363472D01*
X44251Y363450D01*
X44104Y363433D01*
X44079Y363425D01*
X44053Y363421D01*
X43915Y363366D01*
X43776Y363316D01*
X43754Y363302D01*
X43729Y363292D01*
X43608Y363207D01*
X43483Y363127D01*
X43465Y363108D01*
X43443Y363093D01*
X43344Y362983D01*
X43241Y362876D01*
X43227Y362854D01*
X43210Y362834D01*
X43138Y362704D01*
X43062Y362577D01*
X43054Y362552D01*
X43041Y362529D01*
X43001Y362386D01*
X42956Y362245D01*
X42954Y362219D01*
X42946Y362194D01*
X42927Y361950D01*
X42927Y330831D01*
X37023Y324927D01*
X36944Y324828D01*
X36860Y324734D01*
X36836Y324692D01*
X36806Y324654D01*
X36752Y324540D01*
X36691Y324429D01*
X36678Y324383D01*
X36657Y324339D01*
X36631Y324216D01*
X36596Y324094D01*
X36592Y324033D01*
X36584Y323998D01*
X36585Y323950D01*
X36577Y323850D01*
X36577Y273681D01*
X13307Y250411D01*
X13228Y250312D01*
X13144Y250218D01*
X13120Y250176D01*
X13090Y250138D01*
X13036Y250024D01*
X12975Y249913D01*
X12962Y249867D01*
X12941Y249823D01*
X12915Y249700D01*
X12880Y249578D01*
X12875Y249517D01*
X12868Y249482D01*
X12869Y249434D01*
X12861Y249334D01*
X12861Y163416D01*
X12875Y163290D01*
X12882Y163164D01*
X12895Y163118D01*
X12901Y163070D01*
X12943Y162951D01*
X12978Y162829D01*
X13002Y162787D01*
X13018Y162742D01*
X13087Y162636D01*
X13148Y162525D01*
X13188Y162479D01*
X13207Y162449D01*
X13242Y162415D01*
X13307Y162339D01*
X17973Y157673D01*
X18072Y157594D01*
X18166Y157510D01*
X18208Y157486D01*
X18246Y157456D01*
X18360Y157402D01*
X18471Y157341D01*
X18517Y157328D01*
X18561Y157307D01*
X18684Y157281D01*
X18806Y157246D01*
X18867Y157242D01*
X18902Y157234D01*
X18950Y157235D01*
X19050Y157227D01*
X101600Y157227D01*
X101726Y157241D01*
G37*
G36*
X911042Y100080D02*
X911042Y100080D01*
X911068Y100078D01*
X911215Y100100D01*
X911362Y100117D01*
X911387Y100125D01*
X911413Y100129D01*
X911551Y100184D01*
X911690Y100234D01*
X911712Y100248D01*
X911737Y100258D01*
X911858Y100343D01*
X911983Y100423D01*
X912001Y100442D01*
X912023Y100457D01*
X912122Y100567D01*
X912225Y100674D01*
X912239Y100696D01*
X912256Y100716D01*
X912328Y100846D01*
X912404Y100973D01*
X912412Y100998D01*
X912425Y101021D01*
X912465Y101164D01*
X912510Y101305D01*
X912512Y101331D01*
X912520Y101356D01*
X912539Y101600D01*
X912539Y184150D01*
X912536Y184176D01*
X912538Y184202D01*
X912516Y184349D01*
X912499Y184496D01*
X912491Y184521D01*
X912487Y184547D01*
X912432Y184685D01*
X912382Y184824D01*
X912368Y184846D01*
X912358Y184871D01*
X912273Y184992D01*
X912193Y185117D01*
X912174Y185135D01*
X912159Y185157D01*
X912049Y185256D01*
X911942Y185359D01*
X911920Y185373D01*
X911900Y185390D01*
X911770Y185462D01*
X911643Y185538D01*
X911618Y185546D01*
X911595Y185559D01*
X911452Y185599D01*
X911311Y185644D01*
X911285Y185646D01*
X911260Y185654D01*
X911016Y185673D01*
X863600Y185673D01*
X863474Y185659D01*
X863348Y185652D01*
X863302Y185639D01*
X863254Y185633D01*
X863135Y185591D01*
X863013Y185556D01*
X862971Y185532D01*
X862926Y185516D01*
X862819Y185447D01*
X862709Y185386D01*
X862663Y185346D01*
X862633Y185327D01*
X862599Y185292D01*
X862523Y185227D01*
X818519Y141223D01*
X755650Y141223D01*
X755624Y141220D01*
X755598Y141222D01*
X755451Y141200D01*
X755304Y141183D01*
X755279Y141175D01*
X755253Y141171D01*
X755115Y141116D01*
X754976Y141066D01*
X754954Y141052D01*
X754929Y141042D01*
X754808Y140957D01*
X754683Y140877D01*
X754665Y140858D01*
X754643Y140843D01*
X754544Y140733D01*
X754441Y140626D01*
X754427Y140604D01*
X754410Y140584D01*
X754338Y140454D01*
X754262Y140327D01*
X754254Y140302D01*
X754241Y140279D01*
X754201Y140136D01*
X754156Y139995D01*
X754154Y139969D01*
X754146Y139944D01*
X754127Y139700D01*
X754127Y101600D01*
X754130Y101574D01*
X754128Y101548D01*
X754150Y101401D01*
X754167Y101254D01*
X754175Y101229D01*
X754179Y101203D01*
X754234Y101065D01*
X754284Y100926D01*
X754298Y100904D01*
X754308Y100879D01*
X754393Y100758D01*
X754473Y100633D01*
X754492Y100615D01*
X754507Y100593D01*
X754617Y100494D01*
X754724Y100391D01*
X754746Y100377D01*
X754766Y100360D01*
X754896Y100288D01*
X755023Y100212D01*
X755048Y100204D01*
X755071Y100191D01*
X755214Y100151D01*
X755355Y100106D01*
X755381Y100104D01*
X755406Y100096D01*
X755650Y100077D01*
X911016Y100077D01*
X911042Y100080D01*
G37*
%LPC*%
G36*
X866139Y142239D02*
X866139Y142239D01*
X866139Y149861D01*
X872020Y149861D01*
X873599Y149611D01*
X875120Y149116D01*
X876545Y148390D01*
X877839Y147450D01*
X878970Y146319D01*
X879910Y145025D01*
X880636Y143600D01*
X881079Y142239D01*
X866139Y142239D01*
G37*
%LPD*%
%LPC*%
G36*
X866139Y116839D02*
X866139Y116839D01*
X866139Y124461D01*
X872020Y124461D01*
X873599Y124211D01*
X875120Y123716D01*
X876545Y122990D01*
X877839Y122050D01*
X878970Y120919D01*
X879910Y119625D01*
X880636Y118200D01*
X881079Y116839D01*
X866139Y116839D01*
G37*
%LPD*%
%LPC*%
G36*
X846121Y142239D02*
X846121Y142239D01*
X846564Y143600D01*
X847290Y145025D01*
X848230Y146319D01*
X849361Y147450D01*
X850655Y148390D01*
X852080Y149116D01*
X853601Y149611D01*
X855180Y149861D01*
X861061Y149861D01*
X861061Y142239D01*
X846121Y142239D01*
G37*
%LPD*%
%LPC*%
G36*
X846121Y116839D02*
X846121Y116839D01*
X846564Y118200D01*
X847290Y119625D01*
X848230Y120919D01*
X849361Y122050D01*
X850655Y122990D01*
X852080Y123716D01*
X853601Y124211D01*
X855180Y124461D01*
X861061Y124461D01*
X861061Y116839D01*
X846121Y116839D01*
G37*
%LPD*%
%LPC*%
G36*
X866139Y129539D02*
X866139Y129539D01*
X866139Y137161D01*
X881079Y137161D01*
X880636Y135800D01*
X879910Y134375D01*
X878970Y133081D01*
X877839Y131950D01*
X876545Y131010D01*
X875120Y130284D01*
X873599Y129789D01*
X872020Y129539D01*
X866139Y129539D01*
G37*
%LPD*%
%LPC*%
G36*
X866139Y104139D02*
X866139Y104139D01*
X866139Y111761D01*
X881079Y111761D01*
X880636Y110400D01*
X879910Y108975D01*
X878970Y107681D01*
X877839Y106550D01*
X876545Y105610D01*
X875120Y104884D01*
X873599Y104389D01*
X872020Y104139D01*
X866139Y104139D01*
G37*
%LPD*%
%LPC*%
G36*
X855180Y129539D02*
X855180Y129539D01*
X853601Y129789D01*
X852080Y130284D01*
X850655Y131010D01*
X849361Y131950D01*
X848230Y133081D01*
X847290Y134375D01*
X846564Y135800D01*
X846121Y137161D01*
X861061Y137161D01*
X861061Y129539D01*
X855180Y129539D01*
G37*
%LPD*%
%LPC*%
G36*
X855180Y104139D02*
X855180Y104139D01*
X853601Y104389D01*
X852080Y104884D01*
X850655Y105610D01*
X849361Y106550D01*
X848230Y107681D01*
X847290Y108975D01*
X846564Y110400D01*
X846121Y111761D01*
X861061Y111761D01*
X861061Y104139D01*
X855180Y104139D01*
G37*
%LPD*%
%LPC*%
G36*
X94139Y339597D02*
X94139Y339597D01*
X94139Y346917D01*
X95500Y346474D01*
X96925Y345748D01*
X98219Y344808D01*
X99350Y343677D01*
X100290Y342383D01*
X101016Y340958D01*
X101459Y339597D01*
X94139Y339597D01*
G37*
%LPD*%
%LPC*%
G36*
X94139Y294639D02*
X94139Y294639D01*
X94139Y301959D01*
X95500Y301516D01*
X96925Y300790D01*
X98219Y299850D01*
X99350Y298719D01*
X100290Y297425D01*
X101016Y296000D01*
X101459Y294639D01*
X94139Y294639D01*
G37*
%LPD*%
%LPC*%
G36*
X81741Y339597D02*
X81741Y339597D01*
X82184Y340958D01*
X82910Y342383D01*
X83850Y343677D01*
X84981Y344808D01*
X86275Y345748D01*
X87700Y346474D01*
X89061Y346917D01*
X89061Y339597D01*
X81741Y339597D01*
G37*
%LPD*%
%LPC*%
G36*
X94139Y334519D02*
X94139Y334519D01*
X101459Y334519D01*
X101016Y333158D01*
X100290Y331733D01*
X99350Y330439D01*
X98219Y329308D01*
X96925Y328368D01*
X95500Y327642D01*
X94139Y327199D01*
X94139Y334519D01*
G37*
%LPD*%
%LPC*%
G36*
X81741Y294639D02*
X81741Y294639D01*
X82184Y296000D01*
X82910Y297425D01*
X83850Y298719D01*
X84981Y299850D01*
X86275Y300790D01*
X87700Y301516D01*
X89061Y301959D01*
X89061Y294639D01*
X81741Y294639D01*
G37*
%LPD*%
%LPC*%
G36*
X94139Y289561D02*
X94139Y289561D01*
X101459Y289561D01*
X101016Y288200D01*
X100290Y286775D01*
X99350Y285481D01*
X98219Y284350D01*
X96925Y283410D01*
X95500Y282684D01*
X94139Y282241D01*
X94139Y289561D01*
G37*
%LPD*%
%LPC*%
G36*
X87700Y327642D02*
X87700Y327642D01*
X86275Y328368D01*
X84981Y329308D01*
X83850Y330439D01*
X82910Y331733D01*
X82184Y333158D01*
X81741Y334519D01*
X89061Y334519D01*
X89061Y327199D01*
X87700Y327642D01*
G37*
%LPD*%
%LPC*%
G36*
X87700Y282684D02*
X87700Y282684D01*
X86275Y283410D01*
X84981Y284350D01*
X83850Y285481D01*
X82910Y286775D01*
X82184Y288200D01*
X81741Y289561D01*
X89061Y289561D01*
X89061Y282241D01*
X87700Y282684D01*
G37*
%LPD*%
D10*
X584200Y304800D03*
X609600Y304800D03*
D11*
X374650Y361950D03*
X374650Y336550D03*
D12*
X855980Y38100D02*
X871220Y38100D01*
X871220Y63500D02*
X855980Y63500D01*
X855980Y88900D02*
X871220Y88900D01*
X871220Y114300D02*
X855980Y114300D01*
X855980Y139700D02*
X871220Y139700D01*
D13*
X647700Y38100D03*
X571500Y38100D03*
D10*
X571500Y88900D03*
X647700Y88900D03*
D14*
X533400Y317500D03*
X533400Y393700D03*
X431800Y317500D03*
X431800Y393700D03*
X482600Y317500D03*
X482600Y393700D03*
D11*
X457200Y393700D03*
X457200Y317500D03*
D14*
X508000Y317500D03*
X508000Y393700D03*
X558800Y317500D03*
X558800Y393700D03*
D13*
X647700Y63500D03*
X571500Y63500D03*
D15*
X584100Y151950D03*
X604100Y151950D03*
X624100Y151950D03*
X644100Y151950D03*
X635100Y279850D03*
X615100Y279850D03*
X595100Y279850D03*
X575100Y279850D03*
D16*
X901700Y228600D03*
X901700Y203200D03*
D17*
X393200Y42350D03*
X351200Y42350D03*
X309200Y42350D03*
X267200Y42350D03*
X267200Y97350D03*
X309200Y97350D03*
X351200Y97350D03*
X393200Y97350D03*
X833300Y321750D03*
X791300Y321750D03*
X749300Y321750D03*
X707300Y321750D03*
X665300Y321750D03*
X707300Y376750D03*
X665300Y376750D03*
X749300Y376750D03*
X791300Y376750D03*
X833300Y376750D03*
D18*
X26576Y133858D03*
D19*
X26576Y88900D03*
X91600Y88900D03*
X91600Y133858D03*
D18*
X26576Y337058D03*
D19*
X26576Y292100D03*
X91600Y292100D03*
X91600Y337058D03*
D18*
X328676Y235458D03*
D19*
X328676Y190500D03*
X393700Y190500D03*
X393700Y235458D03*
D20*
X323850Y330200D03*
X393700Y107950D03*
D21*
X393700Y177800D01*
D20*
X393700Y177800D03*
X806450Y311150D03*
D21*
X863600Y254000D01*
X863600Y158750D01*
D20*
X863600Y158750D03*
X355961Y346512D03*
D21*
X355961Y336911D01*
X349250Y330200D01*
X323850Y330200D01*
D20*
X508000Y57150D03*
D21*
X558800Y107950D01*
X704850Y107950D01*
D20*
X704850Y107950D03*
X69850Y355600D03*
D21*
X69850Y400050D01*
D20*
X69850Y400050D03*
X292100Y368300D03*
X292100Y342900D03*
D21*
X292100Y358909D02*
X292100Y368300D01*
X292100Y358909D02*
X292580Y358429D01*
X292580Y352771D01*
X292100Y352291D01*
X292100Y342900D01*
D20*
X316384Y316384D03*
D22*
X353369Y279400D01*
X565150Y279400D01*
D20*
X565150Y279400D03*
X742950Y355600D03*
D21*
X857250Y355600D01*
X901700Y311150D01*
X901700Y260350D01*
D20*
X901700Y260350D03*
X825500Y336550D03*
D21*
X819150Y342900D01*
X609600Y342900D01*
X571500Y381000D01*
X571500Y393700D01*
D20*
X571500Y393700D03*
X254000Y13942D03*
D21*
X221008Y13942D01*
X177800Y57150D01*
X177800Y368300D01*
X229566Y420066D01*
X423192Y420066D01*
D20*
X501650Y387350D03*
D21*
X488950Y374650D01*
X447548Y383352D02*
X447548Y395710D01*
X447548Y383352D02*
X456250Y374650D01*
X488950Y374650D01*
X447548Y395710D02*
X423192Y420066D01*
D20*
X533400Y285750D03*
D21*
X519045Y300105D01*
X519045Y312805D01*
D20*
X519045Y312805D03*
X324869Y354900D03*
D21*
X324169Y355600D01*
X355600Y355600D01*
D20*
X355600Y355600D03*
X431800Y304800D03*
D21*
X406400Y304800D01*
X393700Y317500D01*
X393700Y330200D01*
X395355Y331855D01*
D20*
X395355Y331855D03*
X215900Y298450D03*
D21*
X215900Y374650D01*
X254000Y412750D01*
X287180Y412750D01*
X318215Y381715D02*
X325280Y374650D01*
X318215Y381715D02*
X287180Y412750D01*
X325280Y374650D02*
X325280Y368300D01*
D20*
X325280Y368300D03*
X819150Y152400D03*
D21*
X837946Y171196D01*
X837946Y259155D01*
D20*
X839072Y261222D03*
D21*
X839072Y260282D01*
X837946Y259155D01*
D20*
X736600Y114300D03*
D21*
X692150Y69850D01*
X692150Y31750D01*
X673100Y12700D01*
X590550Y12700D01*
X590550Y13942D01*
D20*
X590550Y13942D03*
X361950Y413230D03*
D21*
X355600Y406880D01*
X355600Y398620D01*
X325280Y368300D01*
D20*
X105575Y152880D03*
D21*
X105575Y116675D01*
X114300Y107950D01*
X120650Y101600D01*
X146050Y101600D01*
X170334Y125884D01*
X170334Y128116D01*
D20*
X170334Y128116D03*
X508000Y107950D03*
D21*
X406654Y166295D02*
X406654Y196850D01*
X501650Y114300D02*
X508000Y107950D01*
X501650Y114300D02*
X458649Y114300D01*
X406654Y166295D01*
X406654Y266954D02*
X412750Y273050D01*
X406654Y266954D02*
X406654Y196850D01*
D20*
X412750Y273050D03*
X368300Y298930D03*
X386870Y317500D03*
D21*
X368300Y298930D01*
D20*
X431800Y273050D03*
X533400Y114300D03*
D21*
X482346Y165354D01*
X426645Y165354D01*
X419354Y172645D01*
X419354Y260604D02*
X431800Y273050D01*
X419354Y260604D02*
X419354Y172645D01*
D20*
X312266Y350366D03*
D21*
X312266Y331316D02*
X351482Y292100D01*
X312266Y331316D02*
X312266Y350366D01*
X351482Y292100D02*
X431800Y292100D01*
X450850Y311150D01*
X450850Y311630D01*
D20*
X450850Y311630D03*
X584200Y349250D03*
D21*
X488950Y349250D01*
X450850Y311150D01*
D20*
X736600Y393700D03*
D21*
X723900Y406400D01*
X469900Y406400D01*
X463550Y400050D01*
D20*
X463550Y400050D03*
X698500Y330200D03*
X438150Y387350D03*
D21*
X688511Y330200D02*
X698500Y330200D01*
X688511Y330200D02*
X683413Y335298D01*
X463070Y356080D02*
X438150Y381000D01*
X438150Y387350D01*
X463070Y356080D02*
X587029Y356080D01*
X607811Y335298D02*
X683413Y335298D01*
X607811Y335298D02*
X587029Y356080D01*
D20*
X736600Y317980D03*
D21*
X723420Y304800D01*
X647700Y304800D01*
X622300Y330200D01*
X546100Y330200D01*
X539750Y323850D01*
D20*
X539750Y323850D03*
X374650Y406400D03*
D21*
X406400Y374650D01*
X406400Y323850D02*
X412750Y317500D01*
X419100Y317500D01*
D20*
X419100Y317500D03*
D21*
X406400Y323850D02*
X406400Y374650D01*
D20*
X292100Y330618D03*
X336550Y50800D03*
D22*
X330200Y57150D01*
X298450Y158750D02*
X298450Y308919D01*
X330200Y127000D02*
X330200Y57150D01*
X330200Y127000D02*
X298450Y158750D01*
X292100Y315269D02*
X292100Y330618D01*
X292100Y315269D02*
X298450Y308919D01*
D20*
X279400Y342900D03*
X292100Y50800D03*
D22*
X285750Y57150D01*
X279400Y128433D02*
X279400Y342900D01*
X285750Y122083D02*
X285750Y57150D01*
X285750Y122083D02*
X279400Y128433D01*
D20*
X273050Y355600D03*
X273050Y107950D03*
D22*
X273050Y355600D01*
D20*
X285750Y355600D03*
X298450Y107950D03*
D22*
X298450Y133350D02*
X285750Y146050D01*
X285750Y355600D01*
X298450Y133350D02*
X298450Y107950D01*
D20*
X304800Y361950D03*
X336550Y107950D03*
D22*
X336550Y165100D02*
X304800Y196850D01*
X336550Y165100D02*
X336550Y107950D01*
X304800Y196850D02*
X304800Y361950D01*
M02*
