G04 EAGLE Gerber RS-274X export*
G75*
%MOMM*%
%FSLAX34Y34*%
%LPD*%
%INTop Copper*%
%IPPOS*%
%AMOC8*
5,1,8,0,0,1.08239X$1,22.5*%
G01*
%ADD10C,0.130000*%
%ADD11C,0.152400*%
%ADD12R,0.250000X0.350000*%
%ADD13P,1.429621X8X22.500000*%
%ADD14R,0.350000X0.250000*%
%ADD15P,1.429621X8X292.500000*%
%ADD16C,1.524000*%
%ADD17R,0.720000X1.080000*%
%ADD18R,0.500000X0.300000*%
%ADD19C,0.250000*%
%ADD20P,1.429621X8X202.500000*%
%ADD21P,1.429621X8X112.500000*%
%ADD22C,1.314200*%
%ADD23C,0.218838*%
%ADD24R,1.300000X1.300000*%
%ADD25R,2.100000X2.100000*%
%ADD26R,1.524000X1.524000*%
%ADD27C,1.524000*%
%ADD28R,1.701800X0.990600*%
%ADD29C,0.304800*%
%ADD30C,0.756400*%

G36*
X57176Y163580D02*
X57176Y163580D01*
X57202Y163578D01*
X57349Y163600D01*
X57496Y163617D01*
X57521Y163625D01*
X57547Y163629D01*
X57685Y163684D01*
X57824Y163734D01*
X57846Y163748D01*
X57871Y163758D01*
X57992Y163843D01*
X58117Y163923D01*
X58135Y163942D01*
X58157Y163957D01*
X58256Y164067D01*
X58359Y164174D01*
X58373Y164196D01*
X58390Y164216D01*
X58462Y164346D01*
X58538Y164473D01*
X58546Y164498D01*
X58559Y164521D01*
X58599Y164664D01*
X58644Y164805D01*
X58646Y164831D01*
X58654Y164856D01*
X58673Y165100D01*
X58673Y215269D01*
X159827Y316423D01*
X159906Y316522D01*
X159990Y316616D01*
X160014Y316658D01*
X160044Y316696D01*
X160098Y316810D01*
X160159Y316921D01*
X160172Y316967D01*
X160193Y317011D01*
X160219Y317134D01*
X160254Y317256D01*
X160259Y317317D01*
X160266Y317352D01*
X160265Y317400D01*
X160273Y317500D01*
X160273Y323850D01*
X160259Y323976D01*
X160252Y324102D01*
X160239Y324148D01*
X160233Y324196D01*
X160191Y324315D01*
X160156Y324437D01*
X160132Y324479D01*
X160116Y324524D01*
X160047Y324631D01*
X159986Y324741D01*
X159946Y324787D01*
X159927Y324817D01*
X159892Y324851D01*
X159827Y324927D01*
X121727Y363027D01*
X121628Y363106D01*
X121534Y363190D01*
X121492Y363214D01*
X121454Y363244D01*
X121340Y363298D01*
X121229Y363359D01*
X121183Y363372D01*
X121139Y363393D01*
X121016Y363419D01*
X120894Y363454D01*
X120833Y363459D01*
X120798Y363466D01*
X120750Y363465D01*
X120650Y363473D01*
X63500Y363473D01*
X63374Y363459D01*
X63248Y363452D01*
X63202Y363439D01*
X63154Y363433D01*
X63035Y363391D01*
X62913Y363356D01*
X62871Y363332D01*
X62826Y363316D01*
X62719Y363247D01*
X62609Y363186D01*
X62563Y363146D01*
X62533Y363127D01*
X62499Y363092D01*
X62423Y363027D01*
X43373Y343977D01*
X43294Y343878D01*
X43210Y343784D01*
X43186Y343742D01*
X43156Y343704D01*
X43102Y343590D01*
X43041Y343479D01*
X43028Y343433D01*
X43007Y343389D01*
X42981Y343266D01*
X42946Y343144D01*
X42942Y343083D01*
X42934Y343048D01*
X42935Y343000D01*
X42927Y342900D01*
X42927Y260981D01*
X37023Y255077D01*
X36944Y254978D01*
X36860Y254884D01*
X36836Y254842D01*
X36806Y254804D01*
X36752Y254690D01*
X36691Y254579D01*
X36678Y254533D01*
X36657Y254489D01*
X36631Y254366D01*
X36596Y254244D01*
X36592Y254183D01*
X36584Y254148D01*
X36585Y254100D01*
X36577Y254000D01*
X36577Y165100D01*
X36580Y165074D01*
X36578Y165048D01*
X36600Y164901D01*
X36617Y164754D01*
X36625Y164729D01*
X36629Y164703D01*
X36684Y164565D01*
X36734Y164426D01*
X36748Y164404D01*
X36758Y164379D01*
X36843Y164258D01*
X36923Y164133D01*
X36942Y164115D01*
X36957Y164093D01*
X37067Y163994D01*
X37174Y163891D01*
X37196Y163877D01*
X37216Y163860D01*
X37346Y163788D01*
X37473Y163712D01*
X37498Y163704D01*
X37521Y163691D01*
X37664Y163651D01*
X37805Y163606D01*
X37831Y163604D01*
X37856Y163596D01*
X38100Y163577D01*
X57150Y163577D01*
X57176Y163580D01*
G37*
G36*
X911042Y100080D02*
X911042Y100080D01*
X911068Y100078D01*
X911215Y100100D01*
X911362Y100117D01*
X911387Y100125D01*
X911413Y100129D01*
X911551Y100184D01*
X911690Y100234D01*
X911712Y100248D01*
X911737Y100258D01*
X911858Y100343D01*
X911983Y100423D01*
X912001Y100442D01*
X912023Y100457D01*
X912122Y100567D01*
X912225Y100674D01*
X912239Y100696D01*
X912256Y100716D01*
X912328Y100846D01*
X912404Y100973D01*
X912412Y100998D01*
X912425Y101021D01*
X912465Y101164D01*
X912510Y101305D01*
X912512Y101331D01*
X912520Y101356D01*
X912539Y101600D01*
X912539Y184150D01*
X912536Y184176D01*
X912538Y184202D01*
X912516Y184349D01*
X912499Y184496D01*
X912491Y184521D01*
X912487Y184547D01*
X912432Y184685D01*
X912382Y184824D01*
X912368Y184846D01*
X912358Y184871D01*
X912273Y184992D01*
X912193Y185117D01*
X912174Y185135D01*
X912159Y185157D01*
X912049Y185256D01*
X911942Y185359D01*
X911920Y185373D01*
X911900Y185390D01*
X911770Y185462D01*
X911643Y185538D01*
X911618Y185546D01*
X911595Y185559D01*
X911452Y185599D01*
X911311Y185644D01*
X911285Y185646D01*
X911260Y185654D01*
X911016Y185673D01*
X863600Y185673D01*
X863474Y185659D01*
X863348Y185652D01*
X863302Y185639D01*
X863254Y185633D01*
X863135Y185591D01*
X863013Y185556D01*
X862971Y185532D01*
X862926Y185516D01*
X862819Y185447D01*
X862709Y185386D01*
X862663Y185346D01*
X862633Y185327D01*
X862599Y185292D01*
X862523Y185227D01*
X818519Y141223D01*
X755650Y141223D01*
X755624Y141220D01*
X755598Y141222D01*
X755451Y141200D01*
X755304Y141183D01*
X755279Y141175D01*
X755253Y141171D01*
X755115Y141116D01*
X754976Y141066D01*
X754954Y141052D01*
X754929Y141042D01*
X754808Y140957D01*
X754683Y140877D01*
X754665Y140858D01*
X754643Y140843D01*
X754544Y140733D01*
X754441Y140626D01*
X754427Y140604D01*
X754410Y140584D01*
X754338Y140454D01*
X754262Y140327D01*
X754254Y140302D01*
X754241Y140279D01*
X754201Y140136D01*
X754156Y139995D01*
X754154Y139969D01*
X754146Y139944D01*
X754127Y139700D01*
X754130Y139674D01*
X754128Y139648D01*
X754150Y139501D01*
X754167Y139354D01*
X754175Y139329D01*
X754179Y139303D01*
X754234Y139165D01*
X754284Y139026D01*
X754298Y139003D01*
X754308Y138979D01*
X754393Y138858D01*
X754473Y138733D01*
X754492Y138714D01*
X754507Y138693D01*
X754617Y138594D01*
X754724Y138491D01*
X754746Y138477D01*
X754766Y138459D01*
X754896Y138388D01*
X755023Y138312D01*
X755048Y138304D01*
X755071Y138291D01*
X755214Y138251D01*
X755355Y138205D01*
X755381Y138203D01*
X755406Y138196D01*
X755591Y138181D01*
X755591Y137615D01*
X755418Y136969D01*
X755083Y136390D01*
X754573Y135880D01*
X754494Y135781D01*
X754410Y135687D01*
X754386Y135645D01*
X754356Y135607D01*
X754302Y135493D01*
X754241Y135382D01*
X754228Y135335D01*
X754207Y135292D01*
X754181Y135168D01*
X754146Y135046D01*
X754142Y134986D01*
X754134Y134951D01*
X754135Y134903D01*
X754127Y134803D01*
X754127Y131897D01*
X754141Y131772D01*
X754148Y131646D01*
X754161Y131599D01*
X754167Y131551D01*
X754209Y131432D01*
X754244Y131311D01*
X754268Y131269D01*
X754284Y131223D01*
X754353Y131117D01*
X754414Y131006D01*
X754454Y130960D01*
X754473Y130930D01*
X754508Y130897D01*
X754573Y130820D01*
X755083Y130310D01*
X755418Y129731D01*
X755591Y129085D01*
X755591Y128521D01*
X755451Y128500D01*
X755304Y128484D01*
X755279Y128475D01*
X755253Y128471D01*
X755115Y128416D01*
X754976Y128366D01*
X754954Y128352D01*
X754929Y128342D01*
X754808Y128258D01*
X754683Y128177D01*
X754665Y128158D01*
X754643Y128143D01*
X754544Y128033D01*
X754441Y127926D01*
X754427Y127904D01*
X754410Y127884D01*
X754338Y127754D01*
X754262Y127627D01*
X754254Y127602D01*
X754241Y127579D01*
X754201Y127436D01*
X754156Y127295D01*
X754154Y127269D01*
X754146Y127244D01*
X754127Y127000D01*
X754130Y126974D01*
X754128Y126948D01*
X754150Y126801D01*
X754167Y126654D01*
X754175Y126629D01*
X754179Y126603D01*
X754234Y126465D01*
X754284Y126326D01*
X754298Y126303D01*
X754308Y126279D01*
X754393Y126158D01*
X754473Y126033D01*
X754492Y126014D01*
X754507Y125993D01*
X754617Y125894D01*
X754724Y125791D01*
X754746Y125777D01*
X754766Y125759D01*
X754896Y125688D01*
X755023Y125612D01*
X755048Y125604D01*
X755071Y125591D01*
X755214Y125551D01*
X755355Y125505D01*
X755381Y125503D01*
X755406Y125496D01*
X755591Y125481D01*
X755591Y124915D01*
X755418Y124269D01*
X755083Y123690D01*
X754573Y123180D01*
X754494Y123081D01*
X754410Y122987D01*
X754386Y122945D01*
X754356Y122907D01*
X754302Y122793D01*
X754241Y122682D01*
X754228Y122635D01*
X754207Y122592D01*
X754181Y122468D01*
X754146Y122346D01*
X754142Y122286D01*
X754134Y122251D01*
X754135Y122203D01*
X754127Y122103D01*
X754127Y119197D01*
X754141Y119072D01*
X754148Y118946D01*
X754161Y118899D01*
X754167Y118851D01*
X754209Y118732D01*
X754244Y118611D01*
X754268Y118569D01*
X754284Y118523D01*
X754353Y118417D01*
X754414Y118306D01*
X754454Y118260D01*
X754473Y118230D01*
X754508Y118197D01*
X754573Y118120D01*
X755083Y117610D01*
X755418Y117031D01*
X755591Y116385D01*
X755591Y115821D01*
X755451Y115800D01*
X755304Y115784D01*
X755279Y115775D01*
X755253Y115771D01*
X755115Y115716D01*
X754976Y115666D01*
X754954Y115652D01*
X754929Y115642D01*
X754808Y115558D01*
X754683Y115477D01*
X754665Y115458D01*
X754643Y115443D01*
X754544Y115333D01*
X754441Y115226D01*
X754427Y115204D01*
X754410Y115184D01*
X754338Y115054D01*
X754262Y114927D01*
X754254Y114902D01*
X754241Y114879D01*
X754201Y114736D01*
X754156Y114595D01*
X754154Y114569D01*
X754146Y114544D01*
X754127Y114300D01*
X754130Y114274D01*
X754128Y114248D01*
X754150Y114101D01*
X754167Y113954D01*
X754175Y113929D01*
X754179Y113903D01*
X754234Y113765D01*
X754284Y113626D01*
X754298Y113603D01*
X754308Y113579D01*
X754393Y113458D01*
X754473Y113333D01*
X754492Y113314D01*
X754507Y113293D01*
X754617Y113194D01*
X754724Y113091D01*
X754746Y113077D01*
X754766Y113059D01*
X754896Y112988D01*
X755023Y112912D01*
X755048Y112904D01*
X755071Y112891D01*
X755214Y112851D01*
X755355Y112805D01*
X755381Y112803D01*
X755406Y112796D01*
X755591Y112781D01*
X755591Y112215D01*
X755418Y111569D01*
X755083Y110990D01*
X754573Y110480D01*
X754494Y110381D01*
X754410Y110287D01*
X754386Y110245D01*
X754356Y110207D01*
X754302Y110093D01*
X754241Y109982D01*
X754228Y109935D01*
X754207Y109892D01*
X754181Y109768D01*
X754146Y109646D01*
X754142Y109586D01*
X754134Y109551D01*
X754135Y109503D01*
X754127Y109403D01*
X754127Y101600D01*
X754130Y101574D01*
X754128Y101548D01*
X754150Y101401D01*
X754167Y101254D01*
X754175Y101229D01*
X754179Y101203D01*
X754234Y101065D01*
X754284Y100926D01*
X754298Y100904D01*
X754308Y100879D01*
X754393Y100758D01*
X754473Y100633D01*
X754492Y100615D01*
X754507Y100593D01*
X754617Y100494D01*
X754724Y100391D01*
X754746Y100377D01*
X754766Y100360D01*
X754896Y100288D01*
X755023Y100212D01*
X755048Y100204D01*
X755071Y100191D01*
X755214Y100151D01*
X755355Y100106D01*
X755381Y100104D01*
X755406Y100096D01*
X755650Y100077D01*
X911016Y100077D01*
X911042Y100080D01*
G37*
G36*
X76690Y10172D02*
X76690Y10172D01*
X76791Y10174D01*
X76863Y10192D01*
X76937Y10201D01*
X77032Y10234D01*
X77129Y10259D01*
X77195Y10293D01*
X77265Y10318D01*
X77349Y10373D01*
X77439Y10419D01*
X77495Y10467D01*
X77558Y10507D01*
X77628Y10579D01*
X77704Y10644D01*
X77748Y10704D01*
X77800Y10758D01*
X77852Y10844D01*
X77911Y10925D01*
X77941Y10993D01*
X77979Y11057D01*
X78009Y11152D01*
X78049Y11245D01*
X78062Y11318D01*
X78085Y11389D01*
X78093Y11489D01*
X78111Y11588D01*
X78107Y11662D01*
X78113Y11736D01*
X78098Y11835D01*
X78093Y11936D01*
X78072Y12007D01*
X78061Y12081D01*
X78024Y12174D01*
X77996Y12271D01*
X77960Y12336D01*
X77933Y12405D01*
X77875Y12487D01*
X77826Y12575D01*
X77761Y12651D01*
X77734Y12691D01*
X77707Y12715D01*
X77668Y12761D01*
X77342Y13087D01*
X77007Y13666D01*
X76834Y14312D01*
X76834Y17124D01*
X86931Y17124D01*
X86957Y17127D01*
X86984Y17125D01*
X87130Y17147D01*
X87278Y17164D01*
X87302Y17173D01*
X87328Y17177D01*
X87466Y17232D01*
X87606Y17282D01*
X87628Y17296D01*
X87652Y17306D01*
X87774Y17390D01*
X87886Y17462D01*
X87910Y17438D01*
X87933Y17425D01*
X87952Y17407D01*
X88082Y17335D01*
X88210Y17259D01*
X88235Y17251D01*
X88258Y17239D01*
X88400Y17198D01*
X88542Y17153D01*
X88568Y17151D01*
X88593Y17144D01*
X88837Y17124D01*
X98934Y17124D01*
X98934Y14312D01*
X98761Y13666D01*
X98426Y13087D01*
X98100Y12761D01*
X98038Y12683D01*
X97968Y12610D01*
X97930Y12546D01*
X97884Y12488D01*
X97841Y12397D01*
X97789Y12311D01*
X97766Y12240D01*
X97735Y12173D01*
X97714Y12075D01*
X97683Y11979D01*
X97677Y11905D01*
X97661Y11832D01*
X97663Y11732D01*
X97655Y11632D01*
X97666Y11558D01*
X97667Y11484D01*
X97692Y11386D01*
X97707Y11287D01*
X97734Y11218D01*
X97752Y11146D01*
X97798Y11057D01*
X97835Y10963D01*
X97878Y10902D01*
X97912Y10836D01*
X97977Y10760D01*
X98034Y10677D01*
X98089Y10627D01*
X98138Y10571D01*
X98219Y10511D01*
X98293Y10444D01*
X98358Y10408D01*
X98418Y10363D01*
X98510Y10324D01*
X98598Y10275D01*
X98670Y10255D01*
X98738Y10225D01*
X98837Y10208D01*
X98934Y10180D01*
X99034Y10172D01*
X99081Y10164D01*
X99117Y10166D01*
X99177Y10161D01*
X129423Y10161D01*
X129522Y10172D01*
X129623Y10174D01*
X129695Y10192D01*
X129769Y10201D01*
X129864Y10234D01*
X129961Y10259D01*
X130027Y10293D01*
X130097Y10318D01*
X130181Y10373D01*
X130271Y10419D01*
X130327Y10467D01*
X130390Y10507D01*
X130460Y10579D01*
X130536Y10644D01*
X130580Y10704D01*
X130632Y10758D01*
X130684Y10844D01*
X130743Y10925D01*
X130773Y10993D01*
X130811Y11057D01*
X130841Y11152D01*
X130881Y11245D01*
X130894Y11318D01*
X130917Y11389D01*
X130925Y11489D01*
X130943Y11588D01*
X130939Y11662D01*
X130945Y11736D01*
X130930Y11835D01*
X130925Y11936D01*
X130904Y12007D01*
X130893Y12081D01*
X130856Y12174D01*
X130828Y12271D01*
X130792Y12336D01*
X130765Y12405D01*
X130707Y12487D01*
X130658Y12575D01*
X130593Y12651D01*
X130566Y12691D01*
X130539Y12715D01*
X130500Y12761D01*
X130174Y13087D01*
X129839Y13666D01*
X129666Y14312D01*
X129666Y17124D01*
X139763Y17124D01*
X139789Y17127D01*
X139816Y17125D01*
X139962Y17147D01*
X140110Y17164D01*
X140134Y17173D01*
X140160Y17177D01*
X140298Y17232D01*
X140438Y17282D01*
X140460Y17296D01*
X140484Y17306D01*
X140606Y17390D01*
X140718Y17462D01*
X140742Y17438D01*
X140765Y17425D01*
X140784Y17407D01*
X140914Y17335D01*
X141042Y17259D01*
X141067Y17251D01*
X141090Y17239D01*
X141232Y17198D01*
X141374Y17153D01*
X141400Y17151D01*
X141425Y17144D01*
X141669Y17124D01*
X151766Y17124D01*
X151766Y14312D01*
X151593Y13666D01*
X151258Y13087D01*
X150932Y12761D01*
X150870Y12683D01*
X150800Y12610D01*
X150762Y12546D01*
X150716Y12488D01*
X150673Y12397D01*
X150621Y12311D01*
X150598Y12240D01*
X150567Y12173D01*
X150546Y12075D01*
X150515Y11979D01*
X150509Y11905D01*
X150493Y11832D01*
X150495Y11732D01*
X150487Y11632D01*
X150498Y11558D01*
X150499Y11484D01*
X150524Y11386D01*
X150539Y11287D01*
X150566Y11218D01*
X150584Y11146D01*
X150630Y11057D01*
X150667Y10963D01*
X150710Y10902D01*
X150744Y10836D01*
X150809Y10760D01*
X150866Y10677D01*
X150921Y10627D01*
X150970Y10571D01*
X151051Y10511D01*
X151125Y10444D01*
X151190Y10408D01*
X151250Y10363D01*
X151342Y10324D01*
X151430Y10275D01*
X151502Y10255D01*
X151570Y10225D01*
X151669Y10208D01*
X151766Y10180D01*
X151866Y10172D01*
X151913Y10164D01*
X151949Y10166D01*
X152009Y10161D01*
X197866Y10161D01*
X197966Y10172D01*
X198066Y10174D01*
X198138Y10192D01*
X198212Y10201D01*
X198307Y10234D01*
X198404Y10259D01*
X198470Y10293D01*
X198540Y10318D01*
X198625Y10373D01*
X198714Y10419D01*
X198771Y10467D01*
X198833Y10507D01*
X198903Y10579D01*
X198979Y10644D01*
X199024Y10704D01*
X199075Y10758D01*
X199127Y10844D01*
X199187Y10925D01*
X199216Y10993D01*
X199254Y11057D01*
X199285Y11153D01*
X199325Y11245D01*
X199338Y11318D01*
X199360Y11389D01*
X199368Y11489D01*
X199386Y11588D01*
X199382Y11662D01*
X199388Y11736D01*
X199373Y11836D01*
X199368Y11936D01*
X199348Y12007D01*
X199337Y12081D01*
X199300Y12174D01*
X199272Y12271D01*
X199235Y12336D01*
X199208Y12405D01*
X199151Y12487D01*
X199102Y12575D01*
X199037Y12651D01*
X199009Y12691D01*
X198983Y12715D01*
X198943Y12761D01*
X178877Y32827D01*
X178778Y32906D01*
X178684Y32990D01*
X178642Y33014D01*
X178604Y33044D01*
X178490Y33098D01*
X178379Y33159D01*
X178333Y33172D01*
X178289Y33193D01*
X178166Y33219D01*
X178044Y33254D01*
X177983Y33259D01*
X177948Y33266D01*
X177900Y33265D01*
X177800Y33273D01*
X70481Y33273D01*
X65023Y38731D01*
X65023Y63500D01*
X65021Y63516D01*
X65022Y63527D01*
X65013Y63589D01*
X65009Y63626D01*
X65002Y63752D01*
X64989Y63798D01*
X64983Y63846D01*
X64941Y63965D01*
X64906Y64087D01*
X64882Y64129D01*
X64866Y64174D01*
X64797Y64281D01*
X64736Y64391D01*
X64696Y64437D01*
X64677Y64467D01*
X64642Y64501D01*
X64577Y64577D01*
X58227Y70927D01*
X58128Y71006D01*
X58034Y71090D01*
X57992Y71114D01*
X57954Y71144D01*
X57840Y71198D01*
X57729Y71259D01*
X57683Y71272D01*
X57639Y71293D01*
X57516Y71319D01*
X57394Y71354D01*
X57333Y71359D01*
X57298Y71366D01*
X57250Y71365D01*
X57150Y71373D01*
X14384Y71373D01*
X14358Y71370D01*
X14332Y71372D01*
X14185Y71350D01*
X14038Y71333D01*
X14013Y71325D01*
X13987Y71321D01*
X13849Y71266D01*
X13710Y71216D01*
X13688Y71202D01*
X13663Y71192D01*
X13542Y71107D01*
X13417Y71027D01*
X13399Y71008D01*
X13377Y70993D01*
X13278Y70883D01*
X13175Y70776D01*
X13161Y70754D01*
X13144Y70734D01*
X13072Y70604D01*
X12996Y70477D01*
X12988Y70452D01*
X12975Y70429D01*
X12935Y70286D01*
X12890Y70145D01*
X12888Y70119D01*
X12880Y70094D01*
X12861Y69850D01*
X12861Y11684D01*
X12864Y11658D01*
X12862Y11632D01*
X12884Y11485D01*
X12901Y11338D01*
X12909Y11313D01*
X12913Y11287D01*
X12968Y11149D01*
X13018Y11010D01*
X13032Y10988D01*
X13042Y10963D01*
X13127Y10842D01*
X13207Y10717D01*
X13226Y10699D01*
X13241Y10677D01*
X13351Y10578D01*
X13458Y10475D01*
X13480Y10461D01*
X13500Y10444D01*
X13630Y10372D01*
X13757Y10296D01*
X13782Y10288D01*
X13805Y10275D01*
X13948Y10235D01*
X14089Y10190D01*
X14115Y10188D01*
X14140Y10180D01*
X14384Y10161D01*
X76591Y10161D01*
X76690Y10172D01*
G37*
%LPC*%
G36*
X866139Y142239D02*
X866139Y142239D01*
X866139Y149861D01*
X872020Y149861D01*
X873599Y149611D01*
X875120Y149116D01*
X876545Y148390D01*
X877839Y147450D01*
X878970Y146319D01*
X879910Y145025D01*
X880636Y143600D01*
X881079Y142239D01*
X866139Y142239D01*
G37*
%LPD*%
%LPC*%
G36*
X866139Y116839D02*
X866139Y116839D01*
X866139Y124461D01*
X872020Y124461D01*
X873599Y124211D01*
X875120Y123716D01*
X876545Y122990D01*
X877839Y122050D01*
X878970Y120919D01*
X879910Y119625D01*
X880636Y118200D01*
X881079Y116839D01*
X866139Y116839D01*
G37*
%LPD*%
%LPC*%
G36*
X846121Y142239D02*
X846121Y142239D01*
X846564Y143600D01*
X847290Y145025D01*
X848230Y146319D01*
X849361Y147450D01*
X850655Y148390D01*
X852080Y149116D01*
X853601Y149611D01*
X855180Y149861D01*
X861061Y149861D01*
X861061Y142239D01*
X846121Y142239D01*
G37*
%LPD*%
%LPC*%
G36*
X846121Y116839D02*
X846121Y116839D01*
X846564Y118200D01*
X847290Y119625D01*
X848230Y120919D01*
X849361Y122050D01*
X850655Y122990D01*
X852080Y123716D01*
X853601Y124211D01*
X855180Y124461D01*
X861061Y124461D01*
X861061Y116839D01*
X846121Y116839D01*
G37*
%LPD*%
%LPC*%
G36*
X866139Y129539D02*
X866139Y129539D01*
X866139Y137161D01*
X881079Y137161D01*
X880636Y135800D01*
X879910Y134375D01*
X878970Y133081D01*
X877839Y131950D01*
X876545Y131010D01*
X875120Y130284D01*
X873599Y129789D01*
X872020Y129539D01*
X866139Y129539D01*
G37*
%LPD*%
%LPC*%
G36*
X866139Y104139D02*
X866139Y104139D01*
X866139Y111761D01*
X881079Y111761D01*
X880636Y110400D01*
X879910Y108975D01*
X878970Y107681D01*
X877839Y106550D01*
X876545Y105610D01*
X875120Y104884D01*
X873599Y104389D01*
X872020Y104139D01*
X866139Y104139D01*
G37*
%LPD*%
%LPC*%
G36*
X855180Y129539D02*
X855180Y129539D01*
X853601Y129789D01*
X852080Y130284D01*
X850655Y131010D01*
X849361Y131950D01*
X848230Y133081D01*
X847290Y134375D01*
X846564Y135800D01*
X846121Y137161D01*
X861061Y137161D01*
X861061Y129539D01*
X855180Y129539D01*
G37*
%LPD*%
%LPC*%
G36*
X855180Y104139D02*
X855180Y104139D01*
X853601Y104389D01*
X852080Y104884D01*
X850655Y105610D01*
X849361Y106550D01*
X848230Y107681D01*
X847290Y108975D01*
X846564Y110400D01*
X846121Y111761D01*
X861061Y111761D01*
X861061Y104139D01*
X855180Y104139D01*
G37*
%LPD*%
%LPC*%
G36*
X90360Y22076D02*
X90360Y22076D01*
X90360Y27094D01*
X96728Y27094D01*
X97374Y26921D01*
X97953Y26586D01*
X98426Y26113D01*
X98761Y25534D01*
X98934Y24888D01*
X98934Y22076D01*
X90360Y22076D01*
G37*
%LPD*%
%LPC*%
G36*
X143192Y22076D02*
X143192Y22076D01*
X143192Y27094D01*
X149560Y27094D01*
X150206Y26921D01*
X150785Y26586D01*
X151258Y26113D01*
X151593Y25534D01*
X151766Y24888D01*
X151766Y22076D01*
X143192Y22076D01*
G37*
%LPD*%
%LPC*%
G36*
X76834Y22076D02*
X76834Y22076D01*
X76834Y24888D01*
X77007Y25534D01*
X77342Y26113D01*
X77815Y26586D01*
X78394Y26921D01*
X79040Y27094D01*
X85408Y27094D01*
X85408Y22076D01*
X76834Y22076D01*
G37*
%LPD*%
%LPC*%
G36*
X129666Y22076D02*
X129666Y22076D01*
X129666Y24888D01*
X129839Y25534D01*
X130174Y26113D01*
X130647Y26586D01*
X131226Y26921D01*
X131872Y27094D01*
X138240Y27094D01*
X138240Y22076D01*
X129666Y22076D01*
G37*
%LPD*%
%LPC*%
G36*
X94139Y339597D02*
X94139Y339597D01*
X94139Y346917D01*
X95500Y346474D01*
X96925Y345748D01*
X98219Y344808D01*
X99350Y343677D01*
X100290Y342383D01*
X101016Y340958D01*
X101459Y339597D01*
X94139Y339597D01*
G37*
%LPD*%
%LPC*%
G36*
X94139Y294639D02*
X94139Y294639D01*
X94139Y301959D01*
X95500Y301516D01*
X96925Y300790D01*
X98219Y299850D01*
X99350Y298719D01*
X100290Y297425D01*
X101016Y296000D01*
X101459Y294639D01*
X94139Y294639D01*
G37*
%LPD*%
%LPC*%
G36*
X81741Y339597D02*
X81741Y339597D01*
X82184Y340958D01*
X82910Y342383D01*
X83850Y343677D01*
X84981Y344808D01*
X86275Y345748D01*
X87700Y346474D01*
X89061Y346917D01*
X89061Y339597D01*
X81741Y339597D01*
G37*
%LPD*%
%LPC*%
G36*
X94139Y334519D02*
X94139Y334519D01*
X101459Y334519D01*
X101016Y333158D01*
X100290Y331733D01*
X99350Y330439D01*
X98219Y329308D01*
X96925Y328368D01*
X95500Y327642D01*
X94139Y327199D01*
X94139Y334519D01*
G37*
%LPD*%
%LPC*%
G36*
X81741Y294639D02*
X81741Y294639D01*
X82184Y296000D01*
X82910Y297425D01*
X83850Y298719D01*
X84981Y299850D01*
X86275Y300790D01*
X87700Y301516D01*
X89061Y301959D01*
X89061Y294639D01*
X81741Y294639D01*
G37*
%LPD*%
%LPC*%
G36*
X94139Y289561D02*
X94139Y289561D01*
X101459Y289561D01*
X101016Y288200D01*
X100290Y286775D01*
X99350Y285481D01*
X98219Y284350D01*
X96925Y283410D01*
X95500Y282684D01*
X94139Y282241D01*
X94139Y289561D01*
G37*
%LPD*%
%LPC*%
G36*
X87700Y327642D02*
X87700Y327642D01*
X86275Y328368D01*
X84981Y329308D01*
X83850Y330439D01*
X82910Y331733D01*
X82184Y333158D01*
X81741Y334519D01*
X89061Y334519D01*
X89061Y327199D01*
X87700Y327642D01*
G37*
%LPD*%
%LPC*%
G36*
X87700Y282684D02*
X87700Y282684D01*
X86275Y283410D01*
X84981Y284350D01*
X83850Y285481D01*
X82910Y286775D01*
X82184Y288200D01*
X81741Y289561D01*
X89061Y289561D01*
X89061Y282241D01*
X87700Y282684D01*
G37*
%LPD*%
D10*
X910000Y0D02*
X1048200Y0D01*
X1048200Y425400D02*
X910000Y425400D01*
X1028700Y424750D02*
X1028700Y650D01*
X1025508Y26000D01*
X1031892Y26000D01*
X1028700Y650D01*
X1027400Y26000D01*
X1030000Y26000D02*
X1028700Y650D01*
X1026100Y26000D01*
X1031300Y26000D02*
X1028700Y650D01*
X1025508Y399400D02*
X1028700Y424750D01*
X1025508Y399400D02*
X1031892Y399400D01*
X1028700Y424750D01*
X1027400Y399400D01*
X1030000Y399400D02*
X1028700Y424750D01*
X1026100Y399400D01*
X1031300Y399400D02*
X1028700Y424750D01*
D11*
X1005937Y185164D02*
X1018581Y181552D01*
X1018581Y190583D01*
X1014968Y187874D02*
X1022193Y187874D01*
X1005937Y202150D02*
X1005939Y202275D01*
X1005945Y202400D01*
X1005954Y202525D01*
X1005968Y202649D01*
X1005985Y202773D01*
X1006006Y202897D01*
X1006031Y203019D01*
X1006060Y203141D01*
X1006092Y203262D01*
X1006128Y203382D01*
X1006168Y203501D01*
X1006211Y203618D01*
X1006258Y203734D01*
X1006309Y203849D01*
X1006363Y203961D01*
X1006421Y204073D01*
X1006481Y204182D01*
X1006546Y204289D01*
X1006613Y204395D01*
X1006684Y204498D01*
X1006758Y204599D01*
X1006835Y204698D01*
X1006915Y204794D01*
X1006998Y204888D01*
X1007083Y204979D01*
X1007172Y205068D01*
X1007263Y205153D01*
X1007357Y205236D01*
X1007453Y205316D01*
X1007552Y205393D01*
X1007653Y205467D01*
X1007756Y205538D01*
X1007862Y205605D01*
X1007969Y205670D01*
X1008078Y205730D01*
X1008190Y205788D01*
X1008302Y205842D01*
X1008417Y205893D01*
X1008533Y205940D01*
X1008650Y205983D01*
X1008769Y206023D01*
X1008889Y206059D01*
X1009010Y206091D01*
X1009132Y206120D01*
X1009254Y206145D01*
X1009378Y206166D01*
X1009502Y206183D01*
X1009626Y206197D01*
X1009751Y206206D01*
X1009876Y206212D01*
X1010001Y206214D01*
X1005937Y202150D02*
X1005939Y202007D01*
X1005945Y201865D01*
X1005955Y201722D01*
X1005968Y201580D01*
X1005986Y201439D01*
X1006007Y201297D01*
X1006032Y201157D01*
X1006061Y201017D01*
X1006094Y200878D01*
X1006131Y200740D01*
X1006171Y200603D01*
X1006215Y200468D01*
X1006263Y200333D01*
X1006315Y200200D01*
X1006370Y200068D01*
X1006429Y199938D01*
X1006491Y199810D01*
X1006557Y199683D01*
X1006626Y199558D01*
X1006698Y199435D01*
X1006774Y199314D01*
X1006853Y199196D01*
X1006936Y199079D01*
X1007021Y198965D01*
X1007110Y198853D01*
X1007201Y198744D01*
X1007296Y198637D01*
X1007393Y198532D01*
X1007494Y198431D01*
X1007597Y198332D01*
X1007702Y198236D01*
X1007811Y198143D01*
X1007922Y198053D01*
X1008035Y197966D01*
X1008150Y197882D01*
X1008268Y197802D01*
X1008388Y197724D01*
X1008510Y197650D01*
X1008634Y197580D01*
X1008760Y197512D01*
X1008888Y197449D01*
X1009017Y197388D01*
X1009148Y197331D01*
X1009280Y197278D01*
X1009414Y197229D01*
X1009549Y197183D01*
X1013162Y204859D02*
X1013070Y204953D01*
X1012976Y205043D01*
X1012879Y205131D01*
X1012779Y205216D01*
X1012677Y205298D01*
X1012572Y205376D01*
X1012465Y205452D01*
X1012356Y205524D01*
X1012245Y205593D01*
X1012131Y205659D01*
X1012016Y205721D01*
X1011899Y205780D01*
X1011780Y205835D01*
X1011660Y205886D01*
X1011538Y205934D01*
X1011415Y205979D01*
X1011291Y206019D01*
X1011165Y206056D01*
X1011038Y206089D01*
X1010911Y206118D01*
X1010782Y206144D01*
X1010653Y206165D01*
X1010523Y206183D01*
X1010393Y206196D01*
X1010263Y206206D01*
X1010132Y206212D01*
X1010001Y206214D01*
X1013162Y204860D02*
X1022193Y197183D01*
X1022193Y206214D01*
X1022193Y212189D02*
X1021290Y212189D01*
X1021290Y213092D01*
X1022193Y213092D01*
X1022193Y212189D01*
X1022193Y219067D02*
X1022193Y224486D01*
X1022191Y224604D01*
X1022185Y224722D01*
X1022176Y224840D01*
X1022162Y224957D01*
X1022145Y225074D01*
X1022124Y225191D01*
X1022099Y225306D01*
X1022070Y225421D01*
X1022037Y225535D01*
X1022001Y225647D01*
X1021961Y225758D01*
X1021918Y225868D01*
X1021871Y225977D01*
X1021821Y226084D01*
X1021766Y226189D01*
X1021709Y226292D01*
X1021648Y226393D01*
X1021584Y226493D01*
X1021517Y226590D01*
X1021447Y226685D01*
X1021373Y226777D01*
X1021297Y226868D01*
X1021217Y226955D01*
X1021135Y227040D01*
X1021050Y227122D01*
X1020963Y227202D01*
X1020872Y227278D01*
X1020780Y227352D01*
X1020685Y227422D01*
X1020588Y227489D01*
X1020488Y227553D01*
X1020387Y227614D01*
X1020284Y227671D01*
X1020179Y227726D01*
X1020072Y227776D01*
X1019963Y227823D01*
X1019853Y227866D01*
X1019742Y227906D01*
X1019630Y227942D01*
X1019516Y227975D01*
X1019401Y228004D01*
X1019286Y228029D01*
X1019169Y228050D01*
X1019052Y228067D01*
X1018935Y228081D01*
X1018817Y228090D01*
X1018699Y228096D01*
X1018581Y228098D01*
X1016774Y228098D01*
X1016656Y228096D01*
X1016538Y228090D01*
X1016420Y228081D01*
X1016303Y228067D01*
X1016186Y228050D01*
X1016069Y228029D01*
X1015954Y228004D01*
X1015839Y227975D01*
X1015725Y227942D01*
X1015613Y227906D01*
X1015502Y227866D01*
X1015392Y227823D01*
X1015283Y227776D01*
X1015176Y227726D01*
X1015071Y227671D01*
X1014968Y227614D01*
X1014867Y227553D01*
X1014767Y227489D01*
X1014670Y227422D01*
X1014575Y227352D01*
X1014483Y227278D01*
X1014392Y227202D01*
X1014305Y227122D01*
X1014220Y227040D01*
X1014138Y226955D01*
X1014058Y226868D01*
X1013982Y226777D01*
X1013908Y226685D01*
X1013838Y226590D01*
X1013771Y226493D01*
X1013707Y226393D01*
X1013646Y226292D01*
X1013589Y226189D01*
X1013534Y226084D01*
X1013484Y225977D01*
X1013437Y225868D01*
X1013394Y225758D01*
X1013354Y225647D01*
X1013318Y225535D01*
X1013285Y225421D01*
X1013256Y225306D01*
X1013231Y225191D01*
X1013210Y225074D01*
X1013193Y224957D01*
X1013179Y224840D01*
X1013170Y224722D01*
X1013164Y224604D01*
X1013162Y224486D01*
X1013162Y219067D01*
X1005937Y219067D01*
X1005937Y228098D01*
X1005937Y238311D02*
X1018581Y234698D01*
X1018581Y243729D01*
X1014968Y241020D02*
X1022193Y241020D01*
D10*
X-10000Y0D02*
X-10000Y-57600D01*
X910000Y-57600D02*
X910000Y0D01*
X909350Y-38100D02*
X-9350Y-38100D01*
X16000Y-34908D01*
X16000Y-41292D01*
X-9350Y-38100D01*
X16000Y-36800D01*
X16000Y-39400D02*
X-9350Y-38100D01*
X16000Y-35500D01*
X16000Y-40700D02*
X-9350Y-38100D01*
X884000Y-34908D02*
X909350Y-38100D01*
X884000Y-34908D02*
X884000Y-41292D01*
X909350Y-38100D01*
X884000Y-36800D01*
X884000Y-39400D02*
X909350Y-38100D01*
X884000Y-35500D01*
X884000Y-40700D02*
X909350Y-38100D01*
D11*
X427883Y-24368D02*
X422464Y-24368D01*
X422346Y-24366D01*
X422228Y-24360D01*
X422110Y-24351D01*
X421993Y-24337D01*
X421876Y-24320D01*
X421759Y-24299D01*
X421644Y-24274D01*
X421529Y-24245D01*
X421415Y-24212D01*
X421303Y-24176D01*
X421192Y-24136D01*
X421082Y-24093D01*
X420973Y-24046D01*
X420866Y-23996D01*
X420761Y-23941D01*
X420658Y-23884D01*
X420557Y-23823D01*
X420457Y-23759D01*
X420360Y-23692D01*
X420265Y-23622D01*
X420173Y-23548D01*
X420082Y-23472D01*
X419995Y-23392D01*
X419910Y-23310D01*
X419828Y-23225D01*
X419748Y-23138D01*
X419672Y-23047D01*
X419598Y-22955D01*
X419528Y-22860D01*
X419461Y-22763D01*
X419397Y-22663D01*
X419336Y-22562D01*
X419279Y-22459D01*
X419224Y-22354D01*
X419174Y-22247D01*
X419127Y-22138D01*
X419084Y-22028D01*
X419044Y-21917D01*
X419008Y-21805D01*
X418975Y-21691D01*
X418946Y-21576D01*
X418921Y-21461D01*
X418900Y-21344D01*
X418883Y-21227D01*
X418869Y-21110D01*
X418860Y-20992D01*
X418854Y-20874D01*
X418852Y-20756D01*
X418852Y-19853D01*
X418854Y-19720D01*
X418860Y-19588D01*
X418870Y-19456D01*
X418883Y-19324D01*
X418901Y-19192D01*
X418922Y-19062D01*
X418947Y-18931D01*
X418976Y-18802D01*
X419009Y-18674D01*
X419045Y-18546D01*
X419085Y-18420D01*
X419129Y-18295D01*
X419177Y-18171D01*
X419228Y-18049D01*
X419283Y-17928D01*
X419341Y-17809D01*
X419403Y-17691D01*
X419468Y-17576D01*
X419537Y-17462D01*
X419608Y-17351D01*
X419684Y-17242D01*
X419762Y-17135D01*
X419843Y-17030D01*
X419928Y-16928D01*
X420015Y-16828D01*
X420105Y-16731D01*
X420198Y-16636D01*
X420294Y-16545D01*
X420392Y-16456D01*
X420493Y-16370D01*
X420597Y-16287D01*
X420703Y-16207D01*
X420811Y-16131D01*
X420921Y-16057D01*
X421034Y-15987D01*
X421148Y-15920D01*
X421265Y-15857D01*
X421383Y-15797D01*
X421503Y-15740D01*
X421625Y-15687D01*
X421748Y-15638D01*
X421872Y-15592D01*
X421998Y-15550D01*
X422125Y-15512D01*
X422253Y-15477D01*
X422382Y-15446D01*
X422511Y-15419D01*
X422642Y-15396D01*
X422773Y-15376D01*
X422905Y-15361D01*
X423037Y-15349D01*
X423169Y-15341D01*
X423302Y-15337D01*
X423434Y-15337D01*
X423567Y-15341D01*
X423699Y-15349D01*
X423831Y-15361D01*
X423963Y-15376D01*
X424094Y-15396D01*
X424225Y-15419D01*
X424354Y-15446D01*
X424483Y-15477D01*
X424611Y-15512D01*
X424738Y-15550D01*
X424864Y-15592D01*
X424988Y-15638D01*
X425111Y-15687D01*
X425233Y-15740D01*
X425353Y-15797D01*
X425471Y-15857D01*
X425588Y-15920D01*
X425702Y-15987D01*
X425815Y-16057D01*
X425925Y-16131D01*
X426033Y-16207D01*
X426139Y-16287D01*
X426243Y-16370D01*
X426344Y-16456D01*
X426442Y-16545D01*
X426538Y-16636D01*
X426631Y-16731D01*
X426721Y-16828D01*
X426808Y-16928D01*
X426893Y-17030D01*
X426974Y-17135D01*
X427052Y-17242D01*
X427128Y-17351D01*
X427199Y-17462D01*
X427268Y-17576D01*
X427333Y-17691D01*
X427395Y-17809D01*
X427453Y-17928D01*
X427508Y-18049D01*
X427559Y-18171D01*
X427607Y-18295D01*
X427651Y-18420D01*
X427691Y-18546D01*
X427727Y-18674D01*
X427760Y-18802D01*
X427789Y-18931D01*
X427814Y-19062D01*
X427835Y-19192D01*
X427853Y-19324D01*
X427866Y-19456D01*
X427876Y-19588D01*
X427882Y-19720D01*
X427884Y-19853D01*
X427883Y-19853D02*
X427883Y-24368D01*
X427881Y-24543D01*
X427875Y-24717D01*
X427864Y-24891D01*
X427849Y-25065D01*
X427830Y-25239D01*
X427807Y-25412D01*
X427780Y-25584D01*
X427748Y-25756D01*
X427713Y-25927D01*
X427673Y-26097D01*
X427629Y-26266D01*
X427581Y-26434D01*
X427529Y-26601D01*
X427473Y-26766D01*
X427413Y-26930D01*
X427350Y-27093D01*
X427282Y-27253D01*
X427210Y-27413D01*
X427135Y-27570D01*
X427055Y-27726D01*
X426972Y-27879D01*
X426886Y-28031D01*
X426795Y-28180D01*
X426701Y-28327D01*
X426604Y-28472D01*
X426503Y-28615D01*
X426399Y-28755D01*
X426291Y-28892D01*
X426180Y-29027D01*
X426066Y-29159D01*
X425949Y-29288D01*
X425828Y-29415D01*
X425705Y-29538D01*
X425578Y-29659D01*
X425449Y-29776D01*
X425317Y-29890D01*
X425182Y-30001D01*
X425045Y-30109D01*
X424905Y-30213D01*
X424762Y-30314D01*
X424617Y-30411D01*
X424470Y-30505D01*
X424321Y-30596D01*
X424169Y-30682D01*
X424016Y-30765D01*
X423860Y-30845D01*
X423703Y-30920D01*
X423543Y-30992D01*
X423383Y-31060D01*
X423220Y-31123D01*
X423056Y-31183D01*
X422891Y-31239D01*
X422724Y-31291D01*
X422556Y-31339D01*
X422387Y-31383D01*
X422217Y-31423D01*
X422046Y-31458D01*
X421874Y-31490D01*
X421702Y-31517D01*
X421529Y-31540D01*
X421355Y-31559D01*
X421181Y-31574D01*
X421007Y-31585D01*
X420833Y-31591D01*
X420658Y-31593D01*
X439450Y-15337D02*
X439575Y-15339D01*
X439700Y-15345D01*
X439825Y-15354D01*
X439949Y-15368D01*
X440073Y-15385D01*
X440197Y-15406D01*
X440319Y-15431D01*
X440441Y-15460D01*
X440562Y-15492D01*
X440682Y-15528D01*
X440801Y-15568D01*
X440918Y-15611D01*
X441034Y-15658D01*
X441149Y-15709D01*
X441261Y-15763D01*
X441373Y-15821D01*
X441482Y-15881D01*
X441589Y-15946D01*
X441695Y-16013D01*
X441798Y-16084D01*
X441899Y-16158D01*
X441998Y-16235D01*
X442094Y-16315D01*
X442188Y-16398D01*
X442279Y-16483D01*
X442368Y-16572D01*
X442453Y-16663D01*
X442536Y-16757D01*
X442616Y-16853D01*
X442693Y-16952D01*
X442767Y-17053D01*
X442838Y-17156D01*
X442905Y-17262D01*
X442970Y-17369D01*
X443030Y-17478D01*
X443088Y-17590D01*
X443142Y-17702D01*
X443193Y-17817D01*
X443240Y-17933D01*
X443283Y-18050D01*
X443323Y-18169D01*
X443359Y-18289D01*
X443391Y-18410D01*
X443420Y-18532D01*
X443445Y-18654D01*
X443466Y-18778D01*
X443483Y-18902D01*
X443497Y-19026D01*
X443506Y-19151D01*
X443512Y-19276D01*
X443514Y-19401D01*
X439450Y-15337D02*
X439307Y-15339D01*
X439165Y-15345D01*
X439022Y-15355D01*
X438880Y-15368D01*
X438739Y-15386D01*
X438597Y-15407D01*
X438457Y-15432D01*
X438317Y-15461D01*
X438178Y-15494D01*
X438040Y-15531D01*
X437903Y-15571D01*
X437768Y-15615D01*
X437633Y-15663D01*
X437500Y-15715D01*
X437368Y-15770D01*
X437238Y-15829D01*
X437110Y-15891D01*
X436983Y-15957D01*
X436858Y-16026D01*
X436735Y-16098D01*
X436614Y-16174D01*
X436496Y-16253D01*
X436379Y-16336D01*
X436265Y-16421D01*
X436153Y-16510D01*
X436044Y-16601D01*
X435937Y-16696D01*
X435832Y-16793D01*
X435731Y-16894D01*
X435632Y-16997D01*
X435536Y-17102D01*
X435443Y-17211D01*
X435353Y-17322D01*
X435266Y-17435D01*
X435182Y-17550D01*
X435102Y-17668D01*
X435024Y-17788D01*
X434950Y-17910D01*
X434880Y-18034D01*
X434812Y-18160D01*
X434749Y-18288D01*
X434688Y-18417D01*
X434631Y-18548D01*
X434578Y-18680D01*
X434529Y-18814D01*
X434483Y-18949D01*
X442159Y-22562D02*
X442253Y-22470D01*
X442343Y-22376D01*
X442431Y-22279D01*
X442516Y-22179D01*
X442598Y-22077D01*
X442676Y-21972D01*
X442752Y-21865D01*
X442824Y-21756D01*
X442893Y-21645D01*
X442959Y-21531D01*
X443021Y-21416D01*
X443080Y-21299D01*
X443135Y-21180D01*
X443186Y-21060D01*
X443234Y-20938D01*
X443279Y-20815D01*
X443319Y-20691D01*
X443356Y-20565D01*
X443389Y-20438D01*
X443418Y-20311D01*
X443444Y-20182D01*
X443465Y-20053D01*
X443483Y-19923D01*
X443496Y-19793D01*
X443506Y-19663D01*
X443512Y-19532D01*
X443514Y-19401D01*
X442160Y-22562D02*
X434483Y-31593D01*
X443514Y-31593D01*
X449489Y-31593D02*
X449489Y-30690D01*
X450392Y-30690D01*
X450392Y-31593D01*
X449489Y-31593D01*
X456367Y-23465D02*
X456371Y-23145D01*
X456382Y-22826D01*
X456401Y-22506D01*
X456428Y-22188D01*
X456462Y-21870D01*
X456504Y-21553D01*
X456554Y-21237D01*
X456611Y-20922D01*
X456675Y-20609D01*
X456747Y-20297D01*
X456826Y-19987D01*
X456913Y-19680D01*
X457007Y-19374D01*
X457108Y-19071D01*
X457217Y-18770D01*
X457332Y-18472D01*
X457455Y-18176D01*
X457585Y-17884D01*
X457722Y-17595D01*
X457722Y-17594D02*
X457761Y-17486D01*
X457804Y-17379D01*
X457850Y-17274D01*
X457900Y-17171D01*
X457954Y-17069D01*
X458011Y-16969D01*
X458072Y-16871D01*
X458136Y-16775D01*
X458203Y-16682D01*
X458273Y-16591D01*
X458347Y-16502D01*
X458423Y-16416D01*
X458503Y-16333D01*
X458585Y-16252D01*
X458670Y-16174D01*
X458757Y-16100D01*
X458848Y-16028D01*
X458940Y-15959D01*
X459035Y-15894D01*
X459132Y-15832D01*
X459231Y-15773D01*
X459332Y-15718D01*
X459435Y-15667D01*
X459540Y-15619D01*
X459646Y-15574D01*
X459753Y-15533D01*
X459862Y-15496D01*
X459973Y-15463D01*
X460084Y-15434D01*
X460196Y-15408D01*
X460309Y-15386D01*
X460423Y-15369D01*
X460537Y-15355D01*
X460652Y-15345D01*
X460767Y-15339D01*
X460882Y-15337D01*
X460997Y-15339D01*
X461112Y-15345D01*
X461227Y-15355D01*
X461341Y-15369D01*
X461455Y-15386D01*
X461568Y-15408D01*
X461680Y-15434D01*
X461792Y-15463D01*
X461902Y-15496D01*
X462011Y-15533D01*
X462119Y-15574D01*
X462225Y-15619D01*
X462330Y-15667D01*
X462432Y-15718D01*
X462534Y-15774D01*
X462633Y-15832D01*
X462730Y-15894D01*
X462825Y-15960D01*
X462917Y-16028D01*
X463007Y-16100D01*
X463095Y-16174D01*
X463180Y-16252D01*
X463262Y-16333D01*
X463341Y-16416D01*
X463418Y-16502D01*
X463491Y-16591D01*
X463562Y-16682D01*
X463629Y-16776D01*
X463693Y-16871D01*
X463754Y-16969D01*
X463811Y-17069D01*
X463864Y-17171D01*
X463915Y-17275D01*
X463961Y-17380D01*
X464004Y-17487D01*
X464043Y-17595D01*
X464180Y-17884D01*
X464310Y-18176D01*
X464433Y-18472D01*
X464548Y-18770D01*
X464657Y-19071D01*
X464758Y-19374D01*
X464852Y-19680D01*
X464939Y-19987D01*
X465018Y-20297D01*
X465090Y-20609D01*
X465154Y-20922D01*
X465211Y-21237D01*
X465261Y-21553D01*
X465303Y-21870D01*
X465337Y-22188D01*
X465364Y-22506D01*
X465383Y-22826D01*
X465394Y-23145D01*
X465398Y-23465D01*
X456367Y-23465D02*
X456371Y-23785D01*
X456382Y-24104D01*
X456401Y-24424D01*
X456428Y-24742D01*
X456462Y-25060D01*
X456504Y-25377D01*
X456554Y-25693D01*
X456611Y-26008D01*
X456675Y-26321D01*
X456747Y-26633D01*
X456826Y-26943D01*
X456913Y-27250D01*
X457007Y-27556D01*
X457108Y-27859D01*
X457217Y-28160D01*
X457332Y-28458D01*
X457455Y-28754D01*
X457585Y-29046D01*
X457722Y-29335D01*
X457721Y-29336D02*
X457760Y-29444D01*
X457803Y-29551D01*
X457849Y-29656D01*
X457900Y-29760D01*
X457953Y-29862D01*
X458010Y-29962D01*
X458071Y-30060D01*
X458135Y-30155D01*
X458202Y-30249D01*
X458273Y-30340D01*
X458346Y-30429D01*
X458423Y-30515D01*
X458502Y-30598D01*
X458584Y-30679D01*
X458669Y-30757D01*
X458757Y-30831D01*
X458847Y-30903D01*
X458940Y-30972D01*
X459034Y-31037D01*
X459131Y-31099D01*
X459231Y-31157D01*
X459332Y-31213D01*
X459434Y-31264D01*
X459539Y-31312D01*
X459645Y-31357D01*
X459753Y-31398D01*
X459862Y-31435D01*
X459972Y-31468D01*
X460084Y-31497D01*
X460196Y-31523D01*
X460309Y-31545D01*
X460423Y-31562D01*
X460537Y-31576D01*
X460652Y-31586D01*
X460767Y-31592D01*
X460882Y-31594D01*
X464043Y-29335D02*
X464180Y-29046D01*
X464310Y-28754D01*
X464433Y-28458D01*
X464548Y-28160D01*
X464657Y-27859D01*
X464758Y-27556D01*
X464852Y-27250D01*
X464939Y-26943D01*
X465018Y-26633D01*
X465090Y-26321D01*
X465154Y-26008D01*
X465211Y-25693D01*
X465261Y-25377D01*
X465303Y-25060D01*
X465337Y-24742D01*
X465364Y-24424D01*
X465383Y-24104D01*
X465394Y-23785D01*
X465398Y-23465D01*
X464043Y-29335D02*
X464004Y-29443D01*
X463961Y-29550D01*
X463915Y-29655D01*
X463864Y-29759D01*
X463811Y-29861D01*
X463754Y-29961D01*
X463693Y-30059D01*
X463629Y-30154D01*
X463562Y-30248D01*
X463491Y-30339D01*
X463418Y-30428D01*
X463341Y-30514D01*
X463262Y-30597D01*
X463180Y-30678D01*
X463095Y-30756D01*
X463007Y-30830D01*
X462917Y-30902D01*
X462824Y-30971D01*
X462730Y-31036D01*
X462633Y-31098D01*
X462533Y-31156D01*
X462432Y-31212D01*
X462329Y-31263D01*
X462225Y-31311D01*
X462119Y-31356D01*
X462011Y-31397D01*
X461902Y-31434D01*
X461792Y-31467D01*
X461680Y-31496D01*
X461568Y-31522D01*
X461455Y-31544D01*
X461341Y-31561D01*
X461227Y-31575D01*
X461112Y-31585D01*
X460997Y-31591D01*
X460882Y-31593D01*
X457270Y-27981D02*
X464495Y-18949D01*
X471998Y-23465D02*
X472002Y-23145D01*
X472013Y-22826D01*
X472032Y-22506D01*
X472059Y-22188D01*
X472093Y-21870D01*
X472135Y-21553D01*
X472185Y-21237D01*
X472242Y-20922D01*
X472306Y-20609D01*
X472378Y-20297D01*
X472457Y-19987D01*
X472544Y-19680D01*
X472638Y-19374D01*
X472739Y-19071D01*
X472848Y-18770D01*
X472963Y-18472D01*
X473086Y-18176D01*
X473216Y-17884D01*
X473353Y-17595D01*
X473354Y-17594D02*
X473393Y-17486D01*
X473436Y-17379D01*
X473482Y-17274D01*
X473532Y-17171D01*
X473586Y-17069D01*
X473643Y-16969D01*
X473704Y-16871D01*
X473768Y-16775D01*
X473835Y-16682D01*
X473905Y-16591D01*
X473979Y-16502D01*
X474055Y-16416D01*
X474135Y-16333D01*
X474217Y-16252D01*
X474302Y-16174D01*
X474389Y-16100D01*
X474480Y-16028D01*
X474572Y-15959D01*
X474667Y-15894D01*
X474764Y-15832D01*
X474863Y-15773D01*
X474964Y-15718D01*
X475067Y-15667D01*
X475172Y-15619D01*
X475278Y-15574D01*
X475385Y-15533D01*
X475494Y-15496D01*
X475605Y-15463D01*
X475716Y-15434D01*
X475828Y-15408D01*
X475941Y-15386D01*
X476055Y-15369D01*
X476169Y-15355D01*
X476284Y-15345D01*
X476399Y-15339D01*
X476514Y-15337D01*
X476629Y-15339D01*
X476744Y-15345D01*
X476859Y-15355D01*
X476973Y-15369D01*
X477087Y-15386D01*
X477200Y-15408D01*
X477312Y-15434D01*
X477424Y-15463D01*
X477534Y-15496D01*
X477643Y-15533D01*
X477751Y-15574D01*
X477857Y-15619D01*
X477962Y-15667D01*
X478064Y-15718D01*
X478166Y-15774D01*
X478265Y-15832D01*
X478362Y-15894D01*
X478457Y-15960D01*
X478549Y-16028D01*
X478639Y-16100D01*
X478727Y-16174D01*
X478812Y-16252D01*
X478894Y-16333D01*
X478973Y-16416D01*
X479050Y-16502D01*
X479123Y-16591D01*
X479194Y-16682D01*
X479261Y-16776D01*
X479325Y-16871D01*
X479386Y-16969D01*
X479443Y-17069D01*
X479496Y-17171D01*
X479547Y-17275D01*
X479593Y-17380D01*
X479636Y-17487D01*
X479675Y-17595D01*
X479674Y-17595D02*
X479811Y-17884D01*
X479941Y-18176D01*
X480064Y-18472D01*
X480179Y-18770D01*
X480288Y-19071D01*
X480389Y-19374D01*
X480483Y-19680D01*
X480570Y-19987D01*
X480649Y-20297D01*
X480721Y-20609D01*
X480785Y-20922D01*
X480842Y-21237D01*
X480892Y-21553D01*
X480934Y-21870D01*
X480968Y-22188D01*
X480995Y-22506D01*
X481014Y-22826D01*
X481025Y-23145D01*
X481029Y-23465D01*
X471998Y-23465D02*
X472002Y-23785D01*
X472013Y-24104D01*
X472032Y-24424D01*
X472059Y-24742D01*
X472093Y-25060D01*
X472135Y-25377D01*
X472185Y-25693D01*
X472242Y-26008D01*
X472306Y-26321D01*
X472378Y-26633D01*
X472457Y-26943D01*
X472544Y-27250D01*
X472638Y-27556D01*
X472739Y-27859D01*
X472848Y-28160D01*
X472963Y-28458D01*
X473086Y-28754D01*
X473216Y-29046D01*
X473353Y-29335D01*
X473353Y-29336D02*
X473392Y-29444D01*
X473435Y-29551D01*
X473481Y-29656D01*
X473532Y-29760D01*
X473585Y-29862D01*
X473642Y-29962D01*
X473703Y-30060D01*
X473767Y-30155D01*
X473834Y-30249D01*
X473905Y-30340D01*
X473978Y-30429D01*
X474055Y-30515D01*
X474134Y-30598D01*
X474216Y-30679D01*
X474301Y-30757D01*
X474389Y-30831D01*
X474479Y-30903D01*
X474572Y-30972D01*
X474666Y-31037D01*
X474763Y-31099D01*
X474863Y-31157D01*
X474964Y-31213D01*
X475066Y-31264D01*
X475171Y-31312D01*
X475277Y-31357D01*
X475385Y-31398D01*
X475494Y-31435D01*
X475604Y-31468D01*
X475716Y-31497D01*
X475828Y-31523D01*
X475941Y-31545D01*
X476055Y-31562D01*
X476169Y-31576D01*
X476284Y-31586D01*
X476399Y-31592D01*
X476514Y-31594D01*
X479674Y-29335D02*
X479811Y-29046D01*
X479941Y-28754D01*
X480064Y-28458D01*
X480179Y-28160D01*
X480288Y-27859D01*
X480389Y-27556D01*
X480483Y-27250D01*
X480570Y-26943D01*
X480649Y-26633D01*
X480721Y-26321D01*
X480785Y-26008D01*
X480842Y-25693D01*
X480892Y-25377D01*
X480934Y-25060D01*
X480968Y-24742D01*
X480995Y-24424D01*
X481014Y-24104D01*
X481025Y-23785D01*
X481029Y-23465D01*
X479675Y-29335D02*
X479636Y-29443D01*
X479593Y-29550D01*
X479547Y-29655D01*
X479496Y-29759D01*
X479443Y-29861D01*
X479386Y-29961D01*
X479325Y-30059D01*
X479261Y-30154D01*
X479194Y-30248D01*
X479123Y-30339D01*
X479050Y-30428D01*
X478973Y-30514D01*
X478894Y-30597D01*
X478812Y-30678D01*
X478727Y-30756D01*
X478639Y-30830D01*
X478549Y-30902D01*
X478456Y-30971D01*
X478362Y-31036D01*
X478265Y-31098D01*
X478165Y-31156D01*
X478064Y-31212D01*
X477961Y-31263D01*
X477857Y-31311D01*
X477751Y-31356D01*
X477643Y-31397D01*
X477534Y-31434D01*
X477424Y-31467D01*
X477312Y-31496D01*
X477200Y-31522D01*
X477087Y-31544D01*
X476973Y-31561D01*
X476859Y-31575D01*
X476744Y-31585D01*
X476629Y-31591D01*
X476514Y-31593D01*
X472901Y-27981D02*
X480126Y-18949D01*
D12*
X746800Y127000D03*
X751800Y127000D03*
X403900Y342900D03*
X408900Y342900D03*
X746800Y139700D03*
X751800Y139700D03*
X746800Y114300D03*
X751800Y114300D03*
X313650Y406400D03*
X308650Y406400D03*
X403900Y381000D03*
X408900Y381000D03*
X403900Y368300D03*
X408900Y368300D03*
X403900Y355600D03*
X408900Y355600D03*
X403900Y317500D03*
X408900Y317500D03*
X403900Y304800D03*
X408900Y304800D03*
D13*
X584200Y304800D03*
X609600Y304800D03*
D14*
X546100Y289600D03*
X546100Y294600D03*
X558800Y289600D03*
X558800Y294600D03*
D15*
X374650Y361950D03*
X374650Y336550D03*
D12*
X403900Y330200D03*
X408900Y330200D03*
D16*
X855980Y38100D02*
X871220Y38100D01*
X871220Y63500D02*
X855980Y63500D01*
X855980Y88900D02*
X871220Y88900D01*
X871220Y114300D02*
X855980Y114300D01*
X855980Y139700D02*
X871220Y139700D01*
D17*
X120100Y124850D03*
X139700Y124850D03*
X159300Y124850D03*
X159300Y154550D03*
X139700Y154550D03*
X120100Y154550D03*
D18*
X121920Y139700D03*
D19*
X128450Y138450D02*
X150950Y138450D01*
X128450Y138450D02*
X128450Y140950D01*
X150950Y140950D01*
X150950Y138450D01*
X150950Y140825D02*
X128450Y140825D01*
D20*
X647700Y38100D03*
X571500Y38100D03*
D13*
X571500Y88900D03*
X647700Y88900D03*
D21*
X533400Y317500D03*
X533400Y393700D03*
X431800Y317500D03*
X431800Y393700D03*
X482600Y317500D03*
X482600Y393700D03*
D15*
X457200Y393700D03*
X457200Y317500D03*
D21*
X508000Y317500D03*
X508000Y393700D03*
X558800Y317500D03*
X558800Y393700D03*
D20*
X647700Y63500D03*
X571500Y63500D03*
D22*
X584100Y151950D03*
X604100Y151950D03*
X624100Y151950D03*
X644100Y151950D03*
X635100Y279850D03*
X615100Y279850D03*
X595100Y279850D03*
X575100Y279850D03*
D23*
X346415Y316541D02*
X333911Y316541D01*
X346415Y316541D02*
X346415Y313259D01*
X333911Y313259D01*
X333911Y316541D01*
X333911Y315338D02*
X346415Y315338D01*
X346415Y324541D02*
X333911Y324541D01*
X346415Y324541D02*
X346415Y321259D01*
X333911Y321259D01*
X333911Y324541D01*
X333911Y323338D02*
X346415Y323338D01*
X346415Y332541D02*
X333911Y332541D01*
X346415Y332541D02*
X346415Y329259D01*
X333911Y329259D01*
X333911Y332541D01*
X333911Y331338D02*
X346415Y331338D01*
X346415Y340541D02*
X333911Y340541D01*
X346415Y340541D02*
X346415Y337259D01*
X333911Y337259D01*
X333911Y340541D01*
X333911Y339338D02*
X346415Y339338D01*
X346415Y348541D02*
X333911Y348541D01*
X346415Y348541D02*
X346415Y345259D01*
X333911Y345259D01*
X333911Y348541D01*
X333911Y347338D02*
X346415Y347338D01*
X346415Y356541D02*
X333911Y356541D01*
X346415Y356541D02*
X346415Y353259D01*
X333911Y353259D01*
X333911Y356541D01*
X333911Y355338D02*
X346415Y355338D01*
X346415Y364541D02*
X333911Y364541D01*
X346415Y364541D02*
X346415Y361259D01*
X333911Y361259D01*
X333911Y364541D01*
X333911Y363338D02*
X346415Y363338D01*
X346415Y372541D02*
X333911Y372541D01*
X346415Y372541D02*
X346415Y369259D01*
X333911Y369259D01*
X333911Y372541D01*
X333911Y371338D02*
X346415Y371338D01*
X324809Y378361D02*
X324809Y390865D01*
X328091Y390865D01*
X328091Y378361D01*
X324809Y378361D01*
X324809Y380440D02*
X328091Y380440D01*
X328091Y382519D02*
X324809Y382519D01*
X324809Y384598D02*
X328091Y384598D01*
X328091Y386677D02*
X324809Y386677D01*
X324809Y388756D02*
X328091Y388756D01*
X328091Y390835D02*
X324809Y390835D01*
X316809Y390865D02*
X316809Y378361D01*
X316809Y390865D02*
X320091Y390865D01*
X320091Y378361D01*
X316809Y378361D01*
X316809Y380440D02*
X320091Y380440D01*
X320091Y382519D02*
X316809Y382519D01*
X316809Y384598D02*
X320091Y384598D01*
X320091Y386677D02*
X316809Y386677D01*
X316809Y388756D02*
X320091Y388756D01*
X320091Y390835D02*
X316809Y390835D01*
X308809Y390865D02*
X308809Y378361D01*
X308809Y390865D02*
X312091Y390865D01*
X312091Y378361D01*
X308809Y378361D01*
X308809Y380440D02*
X312091Y380440D01*
X312091Y382519D02*
X308809Y382519D01*
X308809Y384598D02*
X312091Y384598D01*
X312091Y386677D02*
X308809Y386677D01*
X308809Y388756D02*
X312091Y388756D01*
X312091Y390835D02*
X308809Y390835D01*
X300809Y390865D02*
X300809Y378361D01*
X300809Y390865D02*
X304091Y390865D01*
X304091Y378361D01*
X300809Y378361D01*
X300809Y380440D02*
X304091Y380440D01*
X304091Y382519D02*
X300809Y382519D01*
X300809Y384598D02*
X304091Y384598D01*
X304091Y386677D02*
X300809Y386677D01*
X300809Y388756D02*
X304091Y388756D01*
X304091Y390835D02*
X300809Y390835D01*
X292809Y390865D02*
X292809Y378361D01*
X292809Y390865D02*
X296091Y390865D01*
X296091Y378361D01*
X292809Y378361D01*
X292809Y380440D02*
X296091Y380440D01*
X296091Y382519D02*
X292809Y382519D01*
X292809Y384598D02*
X296091Y384598D01*
X296091Y386677D02*
X292809Y386677D01*
X292809Y388756D02*
X296091Y388756D01*
X296091Y390835D02*
X292809Y390835D01*
X284809Y390865D02*
X284809Y378361D01*
X284809Y390865D02*
X288091Y390865D01*
X288091Y378361D01*
X284809Y378361D01*
X284809Y380440D02*
X288091Y380440D01*
X288091Y382519D02*
X284809Y382519D01*
X284809Y384598D02*
X288091Y384598D01*
X288091Y386677D02*
X284809Y386677D01*
X284809Y388756D02*
X288091Y388756D01*
X288091Y390835D02*
X284809Y390835D01*
X276809Y390865D02*
X276809Y378361D01*
X276809Y390865D02*
X280091Y390865D01*
X280091Y378361D01*
X276809Y378361D01*
X276809Y380440D02*
X280091Y380440D01*
X280091Y382519D02*
X276809Y382519D01*
X276809Y384598D02*
X280091Y384598D01*
X280091Y386677D02*
X276809Y386677D01*
X276809Y388756D02*
X280091Y388756D01*
X280091Y390835D02*
X276809Y390835D01*
X268809Y390865D02*
X268809Y378361D01*
X268809Y390865D02*
X272091Y390865D01*
X272091Y378361D01*
X268809Y378361D01*
X268809Y380440D02*
X272091Y380440D01*
X272091Y382519D02*
X268809Y382519D01*
X268809Y384598D02*
X272091Y384598D01*
X272091Y386677D02*
X268809Y386677D01*
X268809Y388756D02*
X272091Y388756D01*
X272091Y390835D02*
X268809Y390835D01*
X262989Y372541D02*
X250485Y372541D01*
X262989Y372541D02*
X262989Y369259D01*
X250485Y369259D01*
X250485Y372541D01*
X250485Y371338D02*
X262989Y371338D01*
X262989Y364541D02*
X250485Y364541D01*
X262989Y364541D02*
X262989Y361259D01*
X250485Y361259D01*
X250485Y364541D01*
X250485Y363338D02*
X262989Y363338D01*
X262989Y356541D02*
X250485Y356541D01*
X262989Y356541D02*
X262989Y353259D01*
X250485Y353259D01*
X250485Y356541D01*
X250485Y355338D02*
X262989Y355338D01*
X262989Y348541D02*
X250485Y348541D01*
X262989Y348541D02*
X262989Y345259D01*
X250485Y345259D01*
X250485Y348541D01*
X250485Y347338D02*
X262989Y347338D01*
X262989Y340541D02*
X250485Y340541D01*
X262989Y340541D02*
X262989Y337259D01*
X250485Y337259D01*
X250485Y340541D01*
X250485Y339338D02*
X262989Y339338D01*
X262989Y332541D02*
X250485Y332541D01*
X262989Y332541D02*
X262989Y329259D01*
X250485Y329259D01*
X250485Y332541D01*
X250485Y331338D02*
X262989Y331338D01*
X262989Y324541D02*
X250485Y324541D01*
X262989Y324541D02*
X262989Y321259D01*
X250485Y321259D01*
X250485Y324541D01*
X250485Y323338D02*
X262989Y323338D01*
X262989Y316541D02*
X250485Y316541D01*
X262989Y316541D02*
X262989Y313259D01*
X250485Y313259D01*
X250485Y316541D01*
X250485Y315338D02*
X262989Y315338D01*
X268809Y307439D02*
X268809Y294935D01*
X268809Y307439D02*
X272091Y307439D01*
X272091Y294935D01*
X268809Y294935D01*
X268809Y297014D02*
X272091Y297014D01*
X272091Y299093D02*
X268809Y299093D01*
X268809Y301172D02*
X272091Y301172D01*
X272091Y303251D02*
X268809Y303251D01*
X268809Y305330D02*
X272091Y305330D01*
X272091Y307409D02*
X268809Y307409D01*
X276809Y307439D02*
X276809Y294935D01*
X276809Y307439D02*
X280091Y307439D01*
X280091Y294935D01*
X276809Y294935D01*
X276809Y297014D02*
X280091Y297014D01*
X280091Y299093D02*
X276809Y299093D01*
X276809Y301172D02*
X280091Y301172D01*
X280091Y303251D02*
X276809Y303251D01*
X276809Y305330D02*
X280091Y305330D01*
X280091Y307409D02*
X276809Y307409D01*
X284809Y307439D02*
X284809Y294935D01*
X284809Y307439D02*
X288091Y307439D01*
X288091Y294935D01*
X284809Y294935D01*
X284809Y297014D02*
X288091Y297014D01*
X288091Y299093D02*
X284809Y299093D01*
X284809Y301172D02*
X288091Y301172D01*
X288091Y303251D02*
X284809Y303251D01*
X284809Y305330D02*
X288091Y305330D01*
X288091Y307409D02*
X284809Y307409D01*
X292809Y307439D02*
X292809Y294935D01*
X292809Y307439D02*
X296091Y307439D01*
X296091Y294935D01*
X292809Y294935D01*
X292809Y297014D02*
X296091Y297014D01*
X296091Y299093D02*
X292809Y299093D01*
X292809Y301172D02*
X296091Y301172D01*
X296091Y303251D02*
X292809Y303251D01*
X292809Y305330D02*
X296091Y305330D01*
X296091Y307409D02*
X292809Y307409D01*
X300809Y307439D02*
X300809Y294935D01*
X300809Y307439D02*
X304091Y307439D01*
X304091Y294935D01*
X300809Y294935D01*
X300809Y297014D02*
X304091Y297014D01*
X304091Y299093D02*
X300809Y299093D01*
X300809Y301172D02*
X304091Y301172D01*
X304091Y303251D02*
X300809Y303251D01*
X300809Y305330D02*
X304091Y305330D01*
X304091Y307409D02*
X300809Y307409D01*
X308809Y307439D02*
X308809Y294935D01*
X308809Y307439D02*
X312091Y307439D01*
X312091Y294935D01*
X308809Y294935D01*
X308809Y297014D02*
X312091Y297014D01*
X312091Y299093D02*
X308809Y299093D01*
X308809Y301172D02*
X312091Y301172D01*
X312091Y303251D02*
X308809Y303251D01*
X308809Y305330D02*
X312091Y305330D01*
X312091Y307409D02*
X308809Y307409D01*
X316809Y307439D02*
X316809Y294935D01*
X316809Y307439D02*
X320091Y307439D01*
X320091Y294935D01*
X316809Y294935D01*
X316809Y297014D02*
X320091Y297014D01*
X320091Y299093D02*
X316809Y299093D01*
X316809Y301172D02*
X320091Y301172D01*
X320091Y303251D02*
X316809Y303251D01*
X316809Y305330D02*
X320091Y305330D01*
X320091Y307409D02*
X316809Y307409D01*
X324809Y307439D02*
X324809Y294935D01*
X324809Y307439D02*
X328091Y307439D01*
X328091Y294935D01*
X324809Y294935D01*
X324809Y297014D02*
X328091Y297014D01*
X328091Y299093D02*
X324809Y299093D01*
X324809Y301172D02*
X328091Y301172D01*
X328091Y303251D02*
X324809Y303251D01*
X324809Y305330D02*
X328091Y305330D01*
X328091Y307409D02*
X324809Y307409D01*
D24*
X901700Y228600D03*
X901700Y203200D03*
D25*
X393200Y42350D03*
X351200Y42350D03*
X309200Y42350D03*
X267200Y42350D03*
X267200Y97350D03*
X309200Y97350D03*
X351200Y97350D03*
X393200Y97350D03*
X833300Y321750D03*
X791300Y321750D03*
X749300Y321750D03*
X707300Y321750D03*
X665300Y321750D03*
X707300Y376750D03*
X665300Y376750D03*
X749300Y376750D03*
X791300Y376750D03*
X833300Y376750D03*
D26*
X26576Y133858D03*
D27*
X26576Y88900D03*
X91600Y88900D03*
X91600Y133858D03*
D26*
X26576Y337058D03*
D27*
X26576Y292100D03*
X91600Y292100D03*
X91600Y337058D03*
D26*
X328676Y235458D03*
D27*
X328676Y190500D03*
X393700Y190500D03*
X393700Y235458D03*
D28*
X87884Y56600D03*
X87884Y19600D03*
X140716Y19600D03*
X140716Y56600D03*
X140716Y375200D03*
X140716Y412200D03*
X87884Y412200D03*
X87884Y375200D03*
D29*
X87884Y412200D02*
X88900Y412200D01*
X140716Y412200D01*
X91600Y337058D02*
X91600Y292100D01*
X91600Y133858D02*
X91600Y88900D01*
X114300Y19600D02*
X140716Y19600D01*
X114300Y19600D02*
X87884Y19600D01*
X393700Y190500D02*
X393700Y235458D01*
X139700Y139700D02*
X121920Y139700D01*
X144450Y139700D02*
X159300Y154550D01*
X144450Y139700D02*
X139700Y139700D01*
X139700Y124850D01*
X97442Y139700D02*
X91600Y133858D01*
X97442Y139700D02*
X121920Y139700D01*
X340163Y322900D02*
X340163Y330900D01*
X286450Y384613D02*
X278450Y384613D01*
X286450Y384613D02*
X294450Y384613D01*
X302450Y384613D01*
X304800Y384613D01*
X310450Y384613D01*
X292100Y301187D02*
X286450Y301187D01*
X292100Y301187D02*
X294450Y301187D01*
X609600Y304800D02*
X615100Y299300D01*
X615100Y279850D01*
X558800Y294600D02*
X546100Y294600D01*
X408900Y368300D02*
X408900Y381000D01*
X408900Y368300D02*
X408900Y355600D01*
X408900Y342900D01*
X408900Y330200D01*
X340163Y330900D02*
X339463Y330200D01*
X408900Y323850D02*
X408900Y317500D01*
X408900Y323850D02*
X408900Y330200D01*
X408900Y317500D02*
X408900Y304800D01*
X339463Y330200D02*
X323850Y330200D01*
D30*
X323850Y330200D03*
D29*
X308650Y388463D02*
X308650Y406400D01*
X308650Y388463D02*
X304800Y384613D01*
X288350Y63500D02*
X267200Y42350D01*
X288350Y63500D02*
X368300Y63500D01*
X393200Y88400D01*
X393200Y97350D01*
X196850Y19600D02*
X140716Y19600D01*
X196850Y19600D02*
X244450Y19600D01*
X267200Y42350D01*
X172000Y412200D02*
X140716Y412200D01*
X229300Y354900D02*
X256737Y354900D01*
X209550Y374650D02*
X172000Y412200D01*
X209550Y374650D02*
X229300Y354900D01*
X158750Y88900D02*
X91600Y88900D01*
X158750Y88900D02*
X196850Y50800D01*
X196850Y19600D01*
X393200Y97350D02*
X393200Y107450D01*
X393700Y107950D01*
D30*
X393700Y107950D03*
X393700Y177800D03*
D29*
X393700Y190500D01*
X863600Y139700D02*
X863600Y127000D01*
X863600Y114300D01*
X751800Y127000D02*
X751800Y139700D01*
X751800Y127000D02*
X751800Y114300D01*
X751800Y127000D02*
X787400Y127000D01*
X863600Y127000D01*
X791300Y321750D02*
X833300Y363750D01*
X833300Y376750D01*
X626550Y321750D02*
X609600Y304800D01*
X626550Y321750D02*
X665300Y321750D01*
X682250Y304800D01*
X790400Y320850D02*
X791300Y321750D01*
X780700Y304800D02*
X682250Y304800D01*
X804175Y308875D02*
X806450Y311150D01*
X804175Y308875D02*
X791300Y321750D01*
D30*
X806450Y311150D03*
X863600Y158750D03*
D29*
X863600Y139700D01*
X286450Y384613D02*
X285750Y385313D01*
X285750Y400050D01*
X273050Y412750D01*
X247650Y412750D01*
X209550Y374650D01*
X365923Y336550D02*
X374650Y336550D01*
X365923Y336550D02*
X355961Y346512D01*
D30*
X355961Y346512D03*
D29*
X374650Y336550D02*
X381000Y336550D01*
X393700Y323850D01*
X408900Y323850D01*
X408900Y304800D02*
X419100Y294600D01*
X546100Y294600D01*
X558800Y294600D02*
X571500Y307300D01*
X571500Y317500D01*
X577850Y323850D01*
X596900Y323850D01*
X609600Y311150D01*
X609600Y304800D01*
X393200Y97350D02*
X433400Y57150D01*
X508000Y57150D01*
D30*
X508000Y57150D03*
X704850Y107950D03*
D29*
X733291Y107950D01*
X733771Y107470D01*
X856770Y107470D02*
X863600Y114300D01*
X856770Y107470D02*
X733771Y107470D01*
X91600Y337058D02*
X73058Y355600D01*
X69850Y355600D01*
D30*
X69850Y355600D03*
X69850Y400050D03*
D29*
X82000Y412200D01*
X88900Y412200D01*
X288100Y301187D02*
X294450Y301187D01*
X288100Y301187D02*
X285750Y298837D01*
X285750Y273050D01*
X196850Y184150D01*
X196850Y127000D01*
X171450Y101600D01*
X158750Y95250D02*
X158750Y88900D01*
X158750Y95250D02*
X165100Y101600D01*
X171450Y101600D01*
X780700Y304800D02*
X790400Y314500D01*
X790400Y320850D01*
X294450Y370650D02*
X294450Y384613D01*
X294450Y370650D02*
X292100Y368300D01*
D30*
X292100Y368300D03*
X292100Y342900D03*
D29*
X304800Y330200D01*
X323850Y330200D01*
D11*
X621950Y266700D02*
X635100Y279850D01*
X388363Y266700D02*
X340163Y314900D01*
X388363Y266700D02*
X621950Y266700D01*
X584100Y151950D02*
X343350Y151950D01*
X311150Y184150D01*
X311150Y241300D01*
X326450Y256600D02*
X326450Y301187D01*
X326450Y256600D02*
X311150Y241300D01*
X318450Y301187D02*
X318678Y304565D01*
X316384Y310034D01*
X316384Y316384D01*
D30*
X316384Y316384D03*
X565150Y279400D03*
D11*
X574650Y279400D01*
X575100Y279850D01*
X620431Y160807D02*
X627769Y160807D01*
X620431Y160807D02*
X615243Y155619D01*
X636626Y151950D02*
X644100Y151950D01*
X615243Y145343D02*
X609600Y139700D01*
X627769Y160807D02*
X636626Y151950D01*
X615243Y155619D02*
X615243Y145343D01*
X609600Y139700D02*
X336550Y139700D01*
X298450Y177800D01*
X298450Y254000D01*
X311150Y266700D01*
X311150Y300487D01*
X310450Y301187D01*
X624100Y151950D02*
X624100Y140375D01*
X610725Y127000D01*
X336550Y127000D02*
X292100Y171450D01*
X292100Y260350D01*
X302450Y270700D02*
X302450Y301187D01*
X336550Y127000D02*
X610725Y127000D01*
X302450Y270700D02*
X292100Y260350D01*
D29*
X482600Y393700D02*
X495300Y406400D01*
X622300Y406400D01*
X647700Y381000D01*
X647700Y361950D01*
X654050Y355600D01*
X742950Y355600D01*
D30*
X742950Y355600D03*
X901700Y260350D03*
D29*
X901700Y228600D01*
X617504Y165354D02*
X604100Y151950D01*
X617504Y165354D02*
X830655Y165354D01*
X868501Y203200D02*
X901700Y203200D01*
X868501Y203200D02*
X830655Y165354D01*
X533400Y393700D02*
X508000Y393700D01*
X533400Y393700D02*
X558800Y393700D01*
X825500Y329550D02*
X833300Y321750D01*
X825500Y329550D02*
X825500Y336550D01*
D30*
X825500Y336550D03*
X571500Y393700D03*
D29*
X558800Y393700D01*
X393200Y42350D02*
X364792Y13942D01*
X254000Y13942D01*
D30*
X254000Y13942D03*
D29*
X501650Y387350D02*
X508000Y393700D01*
D30*
X501650Y387350D03*
D29*
X508000Y317500D02*
X482600Y317500D01*
X584200Y304800D02*
X595100Y293900D01*
X595100Y279850D01*
X558800Y289600D02*
X546100Y289600D01*
X558800Y289600D02*
X562650Y289600D01*
X577850Y304800D02*
X584200Y304800D01*
X577850Y304800D02*
X562650Y289600D01*
X546100Y289600D02*
X537250Y289600D01*
X533400Y285750D01*
D30*
X533400Y285750D03*
X519045Y312805D03*
D29*
X512695Y312805D01*
X508000Y317500D01*
X403900Y330200D02*
X403900Y336550D01*
X403900Y342900D01*
X340163Y354900D02*
X324869Y354900D01*
D30*
X324869Y354900D03*
D29*
X361950Y361950D02*
X374650Y361950D01*
X361950Y361950D02*
X355600Y355600D01*
D30*
X355600Y355600D03*
D29*
X374650Y361950D02*
X386628Y361950D01*
X403900Y344678D02*
X403900Y342900D01*
X403900Y344678D02*
X386628Y361950D01*
X540472Y299172D02*
X558800Y317500D01*
X437428Y299172D02*
X431800Y304800D01*
D30*
X431800Y304800D03*
X395355Y331855D03*
D29*
X402245Y331855D01*
X403900Y330200D01*
X437428Y299172D02*
X540472Y299172D01*
D11*
X140716Y56600D02*
X87884Y56600D01*
X63500Y80984D01*
X63500Y203200D02*
X175200Y314900D01*
X256737Y314900D01*
X63500Y203200D02*
X63500Y80984D01*
X87884Y375200D02*
X140716Y375200D01*
X193016Y322900D01*
X256737Y322900D01*
X26576Y336550D02*
X26576Y337058D01*
X26576Y336550D02*
X26576Y292100D01*
X26576Y133858D01*
X26576Y88900D01*
X328676Y190500D02*
X328676Y235458D01*
X336550Y243332D01*
X336550Y304800D01*
X256737Y330900D02*
X227900Y330900D01*
X165100Y393700D01*
X83726Y393700D01*
X26576Y336550D01*
X266369Y325941D02*
X266369Y324181D01*
X261410Y330900D02*
X256737Y330900D01*
X266982Y323568D02*
X317782Y323568D01*
X336550Y304800D01*
X266982Y323568D02*
X266369Y324181D01*
X266369Y325941D01*
X261410Y330900D01*
D29*
X403900Y368300D02*
X403900Y381000D01*
X403900Y368300D02*
X403900Y355600D01*
X340163Y368300D02*
X340163Y370900D01*
X340163Y368300D02*
X340163Y362900D01*
X746800Y127000D02*
X746800Y114300D01*
X746800Y127000D02*
X746800Y139700D01*
X121770Y152880D02*
X120100Y154550D01*
X120100Y202650D01*
D30*
X215900Y298450D03*
X325280Y368300D03*
D29*
X340163Y368300D01*
X215900Y298450D02*
X120100Y202650D01*
X746800Y143550D02*
X746800Y139700D01*
X746800Y143550D02*
X749300Y146050D01*
X755650Y152400D01*
X781050Y152400D01*
X819150Y152400D01*
D30*
X819150Y152400D03*
D29*
X665300Y376750D02*
X694950Y406400D01*
X835311Y406400D02*
X850900Y390811D01*
X850900Y273050D02*
X839072Y261222D01*
D30*
X839072Y261222D03*
D29*
X835311Y406400D02*
X694950Y406400D01*
X850900Y390811D02*
X850900Y273050D01*
X746800Y114300D02*
X736600Y114300D01*
D30*
X736600Y114300D03*
X590550Y13942D03*
D29*
X571500Y32992D01*
X571500Y38100D01*
X345500Y370900D02*
X340163Y370900D01*
X345500Y370900D02*
X355600Y381000D01*
X403900Y381000D01*
X665300Y376750D02*
X665300Y407850D01*
X654050Y419100D01*
X367820Y419100D01*
X361950Y413230D01*
D30*
X361950Y413230D03*
D29*
X121770Y152880D02*
X105575Y152880D01*
D30*
X105575Y152880D03*
X170334Y128116D03*
D29*
X167069Y124850D01*
X159300Y124850D01*
X647700Y38100D02*
X863600Y38100D01*
D11*
X863600Y63500D02*
X647700Y63500D01*
X647700Y88900D02*
X863600Y88900D01*
D29*
X403900Y317500D02*
X386870Y317500D01*
X552450Y63500D02*
X571500Y63500D01*
X552450Y63500D02*
X508000Y107950D01*
D30*
X508000Y107950D03*
X412750Y273050D03*
D29*
X406400Y273050D01*
X380520Y298930D01*
X368300Y298930D01*
D30*
X368300Y298930D03*
X386870Y317500D03*
D29*
X349582Y343232D02*
X348131Y344684D01*
X349582Y343232D02*
X355600Y337214D01*
X355600Y323850D01*
X361950Y317500D01*
X386870Y317500D01*
X349582Y343232D02*
X348131Y344684D01*
X342380Y344684D01*
X340163Y346900D01*
X340163Y338900D02*
X345914Y338900D01*
X393700Y304800D02*
X403900Y304800D01*
X393700Y304800D02*
X393700Y298450D01*
X406400Y285750D01*
X419100Y285750D01*
X431800Y273050D01*
D30*
X431800Y273050D03*
D29*
X558800Y88900D02*
X571500Y88900D01*
X558800Y88900D02*
X533400Y114300D01*
D30*
X533400Y114300D03*
D29*
X350557Y334257D02*
X345914Y338900D01*
X350557Y316193D02*
X361950Y304800D01*
X364511Y304800D01*
X365471Y305760D01*
X371129Y305760D01*
X372089Y304800D01*
X350557Y316193D02*
X350557Y334257D01*
X372089Y304800D02*
X393700Y304800D01*
X312266Y350366D02*
X311630Y349730D01*
D30*
X312266Y350366D03*
X450850Y311630D03*
D29*
X456720Y317500D01*
X457200Y317500D01*
X757450Y342900D02*
X791300Y376750D01*
X757450Y342900D02*
X590550Y342900D01*
X584200Y349250D01*
D30*
X584200Y349250D03*
D29*
X318450Y378862D02*
X318450Y384613D01*
X318450Y378862D02*
X311630Y372042D01*
X311630Y349730D01*
X736600Y393700D02*
X749300Y381000D01*
X749300Y376750D01*
D30*
X736600Y393700D03*
X463550Y400050D03*
D29*
X457200Y393700D01*
X335537Y393700D02*
X326450Y384613D01*
X335537Y393700D02*
X431800Y393700D01*
X698850Y330200D02*
X707300Y321750D01*
X698850Y330200D02*
X698500Y330200D01*
D30*
X698500Y330200D03*
X438150Y387350D03*
D29*
X431800Y393700D01*
X520700Y304800D02*
X533400Y317500D01*
X520700Y304800D02*
X444500Y304800D01*
X431800Y317500D01*
X745530Y317980D02*
X749300Y321750D01*
X745530Y317980D02*
X736600Y317980D01*
D30*
X736600Y317980D03*
X539750Y323850D03*
D29*
X533400Y317500D01*
X374650Y406400D02*
X313650Y406400D01*
D30*
X374650Y406400D03*
X419100Y317500D03*
D29*
X431800Y317500D01*
D30*
X292100Y330618D03*
D11*
X342750Y50800D02*
X351200Y42350D01*
X342750Y50800D02*
X336550Y50800D01*
D30*
X336550Y50800D03*
D11*
X261410Y338900D02*
X256737Y338900D01*
X261410Y338900D02*
X269901Y330409D01*
X291891Y330409D01*
X292100Y330618D01*
X275400Y346900D02*
X256737Y346900D01*
X275400Y346900D02*
X279400Y342900D01*
D30*
X279400Y342900D03*
D11*
X300750Y50800D02*
X309200Y42350D01*
X300750Y50800D02*
X292100Y50800D01*
D30*
X292100Y50800D03*
D11*
X265750Y362900D02*
X256737Y362900D01*
X265750Y362900D02*
X273050Y355600D01*
D30*
X273050Y355600D03*
D11*
X273050Y107950D02*
X273050Y103200D01*
X267200Y97350D01*
D30*
X273050Y107950D03*
D11*
X270450Y370900D02*
X256737Y370900D01*
X270450Y370900D02*
X285750Y355600D01*
D30*
X285750Y355600D03*
D11*
X298600Y107950D02*
X309200Y97350D01*
X298600Y107950D02*
X298450Y107950D01*
D30*
X298450Y107950D03*
X304800Y361950D03*
D11*
X340600Y107950D02*
X351200Y97350D01*
X340600Y107950D02*
X336550Y107950D01*
D30*
X336550Y107950D03*
D11*
X270450Y377250D02*
X270450Y384613D01*
X270450Y377250D02*
X285750Y361950D01*
X304800Y361950D01*
X139700Y170437D02*
X139700Y154550D01*
X139700Y170437D02*
X270450Y301187D01*
X277808Y295872D02*
X278450Y295230D01*
X278450Y301187D01*
X277808Y295872D02*
X177800Y195864D01*
X177800Y127000D02*
X165100Y114300D01*
X130650Y114300D02*
X120100Y124850D01*
X177800Y127000D02*
X177800Y195864D01*
X165100Y114300D02*
X130650Y114300D01*
M02*
