G04 EAGLE Gerber RS-274X export*
G75*
%MOMM*%
%FSLAX34Y34*%
%LPD*%
%IN*%
%IPPOS*%
%AMOC8*
5,1,8,0,0,1.08239X$1,22.5*%
G01*
%ADD10C,0.254000*%


D10*
X2700Y0D02*
X922700Y0D01*
X922700Y431750D01*
X2700Y431750D01*
X2700Y0D01*
X431800Y177800D02*
X825500Y177800D01*
X825500Y254000D01*
X431800Y254000D01*
X431800Y177800D01*
X455200Y92214D02*
X455124Y91146D01*
X454971Y90085D01*
X454743Y89038D01*
X454441Y88010D01*
X454067Y87006D01*
X453622Y86031D01*
X453108Y85091D01*
X452529Y84190D01*
X451887Y83332D01*
X451185Y82522D01*
X450428Y81765D01*
X449618Y81063D01*
X448760Y80421D01*
X447859Y79842D01*
X446919Y79328D01*
X445944Y78883D01*
X444940Y78509D01*
X443912Y78207D01*
X442865Y77979D01*
X441804Y77826D01*
X440736Y77750D01*
X439664Y77750D01*
X438596Y77826D01*
X437535Y77979D01*
X436488Y78207D01*
X435460Y78509D01*
X434456Y78883D01*
X433481Y79328D01*
X432541Y79842D01*
X431640Y80421D01*
X430782Y81063D01*
X429972Y81765D01*
X429215Y82522D01*
X428513Y83332D01*
X427871Y84190D01*
X427292Y85091D01*
X426778Y86031D01*
X426333Y87006D01*
X425959Y88010D01*
X425657Y89038D01*
X425429Y90085D01*
X425276Y91146D01*
X425200Y92214D01*
X425200Y93286D01*
X425276Y94354D01*
X425429Y95415D01*
X425657Y96462D01*
X425959Y97490D01*
X426333Y98494D01*
X426778Y99469D01*
X427292Y100409D01*
X427871Y101310D01*
X428513Y102168D01*
X429215Y102978D01*
X429972Y103735D01*
X430782Y104437D01*
X431640Y105079D01*
X432541Y105658D01*
X433481Y106172D01*
X434456Y106617D01*
X435460Y106991D01*
X436488Y107293D01*
X437535Y107521D01*
X438596Y107674D01*
X439664Y107750D01*
X440736Y107750D01*
X441804Y107674D01*
X442865Y107521D01*
X443912Y107293D01*
X444940Y106991D01*
X445944Y106617D01*
X446919Y106172D01*
X447859Y105658D01*
X448760Y105079D01*
X449618Y104437D01*
X450428Y103735D01*
X451185Y102978D01*
X451887Y102168D01*
X452529Y101310D01*
X453108Y100409D01*
X453622Y99469D01*
X454067Y98494D01*
X454441Y97490D01*
X454743Y96462D01*
X454971Y95415D01*
X455124Y94354D01*
X455200Y93286D01*
X455200Y92214D01*
X235200Y92214D02*
X235124Y91146D01*
X234971Y90085D01*
X234743Y89038D01*
X234441Y88010D01*
X234067Y87006D01*
X233622Y86031D01*
X233108Y85091D01*
X232529Y84190D01*
X231887Y83332D01*
X231185Y82522D01*
X230428Y81765D01*
X229618Y81063D01*
X228760Y80421D01*
X227859Y79842D01*
X226919Y79328D01*
X225944Y78883D01*
X224940Y78509D01*
X223912Y78207D01*
X222865Y77979D01*
X221804Y77826D01*
X220736Y77750D01*
X219664Y77750D01*
X218596Y77826D01*
X217535Y77979D01*
X216488Y78207D01*
X215460Y78509D01*
X214456Y78883D01*
X213481Y79328D01*
X212541Y79842D01*
X211640Y80421D01*
X210782Y81063D01*
X209972Y81765D01*
X209215Y82522D01*
X208513Y83332D01*
X207871Y84190D01*
X207292Y85091D01*
X206778Y86031D01*
X206333Y87006D01*
X205959Y88010D01*
X205657Y89038D01*
X205429Y90085D01*
X205276Y91146D01*
X205200Y92214D01*
X205200Y93286D01*
X205276Y94354D01*
X205429Y95415D01*
X205657Y96462D01*
X205959Y97490D01*
X206333Y98494D01*
X206778Y99469D01*
X207292Y100409D01*
X207871Y101310D01*
X208513Y102168D01*
X209215Y102978D01*
X209972Y103735D01*
X210782Y104437D01*
X211640Y105079D01*
X212541Y105658D01*
X213481Y106172D01*
X214456Y106617D01*
X215460Y106991D01*
X216488Y107293D01*
X217535Y107521D01*
X218596Y107674D01*
X219664Y107750D01*
X220736Y107750D01*
X221804Y107674D01*
X222865Y107521D01*
X223912Y107293D01*
X224940Y106991D01*
X225944Y106617D01*
X226919Y106172D01*
X227859Y105658D01*
X228760Y105079D01*
X229618Y104437D01*
X230428Y103735D01*
X231185Y102978D01*
X231887Y102168D01*
X232529Y101310D01*
X233108Y100409D01*
X233622Y99469D01*
X234067Y98494D01*
X234441Y97490D01*
X234743Y96462D01*
X234971Y95415D01*
X235124Y94354D01*
X235200Y93286D01*
X235200Y92214D01*
X895300Y371614D02*
X895224Y370546D01*
X895071Y369485D01*
X894843Y368438D01*
X894541Y367410D01*
X894167Y366406D01*
X893722Y365431D01*
X893208Y364491D01*
X892629Y363590D01*
X891987Y362732D01*
X891285Y361922D01*
X890528Y361165D01*
X889718Y360463D01*
X888860Y359821D01*
X887959Y359242D01*
X887019Y358728D01*
X886044Y358283D01*
X885040Y357909D01*
X884012Y357607D01*
X882965Y357379D01*
X881904Y357226D01*
X880836Y357150D01*
X879764Y357150D01*
X878696Y357226D01*
X877635Y357379D01*
X876588Y357607D01*
X875560Y357909D01*
X874556Y358283D01*
X873581Y358728D01*
X872641Y359242D01*
X871740Y359821D01*
X870882Y360463D01*
X870072Y361165D01*
X869315Y361922D01*
X868613Y362732D01*
X867971Y363590D01*
X867392Y364491D01*
X866878Y365431D01*
X866433Y366406D01*
X866059Y367410D01*
X865757Y368438D01*
X865529Y369485D01*
X865376Y370546D01*
X865300Y371614D01*
X865300Y372686D01*
X865376Y373754D01*
X865529Y374815D01*
X865757Y375862D01*
X866059Y376890D01*
X866433Y377894D01*
X866878Y378869D01*
X867392Y379809D01*
X867971Y380710D01*
X868613Y381568D01*
X869315Y382378D01*
X870072Y383135D01*
X870882Y383837D01*
X871740Y384479D01*
X872641Y385058D01*
X873581Y385572D01*
X874556Y386017D01*
X875560Y386391D01*
X876588Y386693D01*
X877635Y386921D01*
X878696Y387074D01*
X879764Y387150D01*
X880836Y387150D01*
X881904Y387074D01*
X882965Y386921D01*
X884012Y386693D01*
X885040Y386391D01*
X886044Y386017D01*
X887019Y385572D01*
X887959Y385058D01*
X888860Y384479D01*
X889718Y383837D01*
X890528Y383135D01*
X891285Y382378D01*
X891987Y381568D01*
X892629Y380710D01*
X893208Y379809D01*
X893722Y378869D01*
X894167Y377894D01*
X894541Y376890D01*
X894843Y375862D01*
X895071Y374815D01*
X895224Y373754D01*
X895300Y372686D01*
X895300Y371614D01*
X633300Y371614D02*
X633224Y370546D01*
X633071Y369485D01*
X632843Y368438D01*
X632541Y367410D01*
X632167Y366406D01*
X631722Y365431D01*
X631208Y364491D01*
X630629Y363590D01*
X629987Y362732D01*
X629285Y361922D01*
X628528Y361165D01*
X627718Y360463D01*
X626860Y359821D01*
X625959Y359242D01*
X625019Y358728D01*
X624044Y358283D01*
X623040Y357909D01*
X622012Y357607D01*
X620965Y357379D01*
X619904Y357226D01*
X618836Y357150D01*
X617764Y357150D01*
X616696Y357226D01*
X615635Y357379D01*
X614588Y357607D01*
X613560Y357909D01*
X612556Y358283D01*
X611581Y358728D01*
X610641Y359242D01*
X609740Y359821D01*
X608882Y360463D01*
X608072Y361165D01*
X607315Y361922D01*
X606613Y362732D01*
X605971Y363590D01*
X605392Y364491D01*
X604878Y365431D01*
X604433Y366406D01*
X604059Y367410D01*
X603757Y368438D01*
X603529Y369485D01*
X603376Y370546D01*
X603300Y371614D01*
X603300Y372686D01*
X603376Y373754D01*
X603529Y374815D01*
X603757Y375862D01*
X604059Y376890D01*
X604433Y377894D01*
X604878Y378869D01*
X605392Y379809D01*
X605971Y380710D01*
X606613Y381568D01*
X607315Y382378D01*
X608072Y383135D01*
X608882Y383837D01*
X609740Y384479D01*
X610641Y385058D01*
X611581Y385572D01*
X612556Y386017D01*
X613560Y386391D01*
X614588Y386693D01*
X615635Y386921D01*
X616696Y387074D01*
X617764Y387150D01*
X618836Y387150D01*
X619904Y387074D01*
X620965Y386921D01*
X622012Y386693D01*
X623040Y386391D01*
X624044Y386017D01*
X625019Y385572D01*
X625959Y385058D01*
X626860Y384479D01*
X627718Y383837D01*
X628528Y383135D01*
X629285Y382378D01*
X629987Y381568D01*
X630629Y380710D01*
X631208Y379809D01*
X631722Y378869D01*
X632167Y377894D01*
X632541Y376890D01*
X632843Y375862D01*
X633071Y374815D01*
X633224Y373754D01*
X633300Y372686D01*
X633300Y371614D01*
M02*
