G04 EAGLE Gerber RS-274X export*
G75*
%MOMM*%
%FSLAX34Y34*%
%LPD*%
%INSilkscreen Bottom*%
%IPPOS*%
%AMOC8*
5,1,8,0,0,1.08239X$1,22.5*%
G01*
%ADD10C,0.152400*%
%ADD11C,0.762000*%
%ADD12R,0.508000X0.762000*%
%ADD13R,1.016000X0.762000*%


D10*
X882650Y25400D02*
X882650Y50800D01*
X908050Y50800D01*
X908050Y25400D01*
X882650Y25400D01*
D11*
X914400Y38100D02*
X971550Y38100D01*
D10*
X882650Y50800D02*
X882650Y76200D01*
X908050Y76200D01*
X908050Y50800D01*
D11*
X914400Y63500D02*
X971550Y63500D01*
D10*
X882650Y76200D02*
X882650Y101600D01*
X908050Y101600D01*
X908050Y76200D01*
D11*
X914400Y88900D02*
X971550Y88900D01*
D10*
X882650Y101600D02*
X882650Y127000D01*
X908050Y127000D01*
X908050Y101600D01*
D11*
X914400Y114300D02*
X971550Y114300D01*
D10*
X882650Y127000D02*
X882650Y152400D01*
X908050Y152400D01*
X908050Y127000D01*
D11*
X914400Y139700D02*
X971550Y139700D01*
D12*
X910590Y38100D03*
X910590Y63500D03*
X910590Y88900D03*
X910590Y114300D03*
X910590Y139700D03*
D13*
X877570Y38100D03*
X877570Y63500D03*
X877570Y88900D03*
X877570Y114300D03*
X877570Y139700D03*
M02*
