G04 EAGLE Gerber RS-274X export*
G75*
%MOMM*%
%FSLAX34Y34*%
%LPD*%
%INSolderpaste Top*%
%IPPOS*%
%AMOC8*
5,1,8,0,0,1.08239X$1,22.5*%
G01*
%ADD10R,0.250000X0.350000*%
%ADD11R,0.350000X0.250000*%
%ADD12R,0.500000X0.300000*%
%ADD13C,0.250000*%
%ADD14R,0.612500X0.287500*%
%ADD15R,0.612400X0.287400*%
%ADD16C,0.218838*%
%ADD17R,1.701800X0.990600*%


D10*
X746800Y127000D03*
X751800Y127000D03*
X403900Y342900D03*
X408900Y342900D03*
X746800Y139700D03*
X751800Y139700D03*
X746800Y114300D03*
X751800Y114300D03*
X313650Y406400D03*
X308650Y406400D03*
X403900Y381000D03*
X408900Y381000D03*
X403900Y368300D03*
X408900Y368300D03*
X403900Y355600D03*
X408900Y355600D03*
X403900Y317500D03*
X408900Y317500D03*
X403900Y304800D03*
X408900Y304800D03*
D11*
X546100Y289600D03*
X546100Y294600D03*
X558800Y289600D03*
X558800Y294600D03*
D10*
X403900Y330200D03*
X408900Y330200D03*
D12*
X121920Y139700D03*
D13*
X128450Y138450D02*
X150950Y138450D01*
X128450Y138450D02*
X128450Y140950D01*
X150950Y140950D01*
X150950Y138450D01*
X150950Y140825D02*
X128450Y140825D01*
D14*
X139638Y121513D03*
D15*
X139638Y128013D03*
D14*
X120038Y121513D03*
D15*
X120038Y128013D03*
D14*
X159238Y121513D03*
D15*
X159238Y128013D03*
X159362Y157887D03*
X159362Y151387D03*
X139762Y157887D03*
X139762Y151387D03*
X120162Y157887D03*
X120162Y151387D03*
D16*
X333911Y316541D02*
X346415Y316541D01*
X346415Y313259D01*
X333911Y313259D01*
X333911Y316541D01*
X333911Y315338D02*
X346415Y315338D01*
X346415Y324541D02*
X333911Y324541D01*
X346415Y324541D02*
X346415Y321259D01*
X333911Y321259D01*
X333911Y324541D01*
X333911Y323338D02*
X346415Y323338D01*
X346415Y332541D02*
X333911Y332541D01*
X346415Y332541D02*
X346415Y329259D01*
X333911Y329259D01*
X333911Y332541D01*
X333911Y331338D02*
X346415Y331338D01*
X346415Y340541D02*
X333911Y340541D01*
X346415Y340541D02*
X346415Y337259D01*
X333911Y337259D01*
X333911Y340541D01*
X333911Y339338D02*
X346415Y339338D01*
X346415Y348541D02*
X333911Y348541D01*
X346415Y348541D02*
X346415Y345259D01*
X333911Y345259D01*
X333911Y348541D01*
X333911Y347338D02*
X346415Y347338D01*
X346415Y356541D02*
X333911Y356541D01*
X346415Y356541D02*
X346415Y353259D01*
X333911Y353259D01*
X333911Y356541D01*
X333911Y355338D02*
X346415Y355338D01*
X346415Y364541D02*
X333911Y364541D01*
X346415Y364541D02*
X346415Y361259D01*
X333911Y361259D01*
X333911Y364541D01*
X333911Y363338D02*
X346415Y363338D01*
X346415Y372541D02*
X333911Y372541D01*
X346415Y372541D02*
X346415Y369259D01*
X333911Y369259D01*
X333911Y372541D01*
X333911Y371338D02*
X346415Y371338D01*
X324809Y378361D02*
X324809Y390865D01*
X328091Y390865D01*
X328091Y378361D01*
X324809Y378361D01*
X324809Y380440D02*
X328091Y380440D01*
X328091Y382519D02*
X324809Y382519D01*
X324809Y384598D02*
X328091Y384598D01*
X328091Y386677D02*
X324809Y386677D01*
X324809Y388756D02*
X328091Y388756D01*
X328091Y390835D02*
X324809Y390835D01*
X316809Y390865D02*
X316809Y378361D01*
X316809Y390865D02*
X320091Y390865D01*
X320091Y378361D01*
X316809Y378361D01*
X316809Y380440D02*
X320091Y380440D01*
X320091Y382519D02*
X316809Y382519D01*
X316809Y384598D02*
X320091Y384598D01*
X320091Y386677D02*
X316809Y386677D01*
X316809Y388756D02*
X320091Y388756D01*
X320091Y390835D02*
X316809Y390835D01*
X308809Y390865D02*
X308809Y378361D01*
X308809Y390865D02*
X312091Y390865D01*
X312091Y378361D01*
X308809Y378361D01*
X308809Y380440D02*
X312091Y380440D01*
X312091Y382519D02*
X308809Y382519D01*
X308809Y384598D02*
X312091Y384598D01*
X312091Y386677D02*
X308809Y386677D01*
X308809Y388756D02*
X312091Y388756D01*
X312091Y390835D02*
X308809Y390835D01*
X300809Y390865D02*
X300809Y378361D01*
X300809Y390865D02*
X304091Y390865D01*
X304091Y378361D01*
X300809Y378361D01*
X300809Y380440D02*
X304091Y380440D01*
X304091Y382519D02*
X300809Y382519D01*
X300809Y384598D02*
X304091Y384598D01*
X304091Y386677D02*
X300809Y386677D01*
X300809Y388756D02*
X304091Y388756D01*
X304091Y390835D02*
X300809Y390835D01*
X292809Y390865D02*
X292809Y378361D01*
X292809Y390865D02*
X296091Y390865D01*
X296091Y378361D01*
X292809Y378361D01*
X292809Y380440D02*
X296091Y380440D01*
X296091Y382519D02*
X292809Y382519D01*
X292809Y384598D02*
X296091Y384598D01*
X296091Y386677D02*
X292809Y386677D01*
X292809Y388756D02*
X296091Y388756D01*
X296091Y390835D02*
X292809Y390835D01*
X284809Y390865D02*
X284809Y378361D01*
X284809Y390865D02*
X288091Y390865D01*
X288091Y378361D01*
X284809Y378361D01*
X284809Y380440D02*
X288091Y380440D01*
X288091Y382519D02*
X284809Y382519D01*
X284809Y384598D02*
X288091Y384598D01*
X288091Y386677D02*
X284809Y386677D01*
X284809Y388756D02*
X288091Y388756D01*
X288091Y390835D02*
X284809Y390835D01*
X276809Y390865D02*
X276809Y378361D01*
X276809Y390865D02*
X280091Y390865D01*
X280091Y378361D01*
X276809Y378361D01*
X276809Y380440D02*
X280091Y380440D01*
X280091Y382519D02*
X276809Y382519D01*
X276809Y384598D02*
X280091Y384598D01*
X280091Y386677D02*
X276809Y386677D01*
X276809Y388756D02*
X280091Y388756D01*
X280091Y390835D02*
X276809Y390835D01*
X268809Y390865D02*
X268809Y378361D01*
X268809Y390865D02*
X272091Y390865D01*
X272091Y378361D01*
X268809Y378361D01*
X268809Y380440D02*
X272091Y380440D01*
X272091Y382519D02*
X268809Y382519D01*
X268809Y384598D02*
X272091Y384598D01*
X272091Y386677D02*
X268809Y386677D01*
X268809Y388756D02*
X272091Y388756D01*
X272091Y390835D02*
X268809Y390835D01*
X262989Y372541D02*
X250485Y372541D01*
X262989Y372541D02*
X262989Y369259D01*
X250485Y369259D01*
X250485Y372541D01*
X250485Y371338D02*
X262989Y371338D01*
X262989Y364541D02*
X250485Y364541D01*
X262989Y364541D02*
X262989Y361259D01*
X250485Y361259D01*
X250485Y364541D01*
X250485Y363338D02*
X262989Y363338D01*
X262989Y356541D02*
X250485Y356541D01*
X262989Y356541D02*
X262989Y353259D01*
X250485Y353259D01*
X250485Y356541D01*
X250485Y355338D02*
X262989Y355338D01*
X262989Y348541D02*
X250485Y348541D01*
X262989Y348541D02*
X262989Y345259D01*
X250485Y345259D01*
X250485Y348541D01*
X250485Y347338D02*
X262989Y347338D01*
X262989Y340541D02*
X250485Y340541D01*
X262989Y340541D02*
X262989Y337259D01*
X250485Y337259D01*
X250485Y340541D01*
X250485Y339338D02*
X262989Y339338D01*
X262989Y332541D02*
X250485Y332541D01*
X262989Y332541D02*
X262989Y329259D01*
X250485Y329259D01*
X250485Y332541D01*
X250485Y331338D02*
X262989Y331338D01*
X262989Y324541D02*
X250485Y324541D01*
X262989Y324541D02*
X262989Y321259D01*
X250485Y321259D01*
X250485Y324541D01*
X250485Y323338D02*
X262989Y323338D01*
X262989Y316541D02*
X250485Y316541D01*
X262989Y316541D02*
X262989Y313259D01*
X250485Y313259D01*
X250485Y316541D01*
X250485Y315338D02*
X262989Y315338D01*
X268809Y307439D02*
X268809Y294935D01*
X268809Y307439D02*
X272091Y307439D01*
X272091Y294935D01*
X268809Y294935D01*
X268809Y297014D02*
X272091Y297014D01*
X272091Y299093D02*
X268809Y299093D01*
X268809Y301172D02*
X272091Y301172D01*
X272091Y303251D02*
X268809Y303251D01*
X268809Y305330D02*
X272091Y305330D01*
X272091Y307409D02*
X268809Y307409D01*
X276809Y307439D02*
X276809Y294935D01*
X276809Y307439D02*
X280091Y307439D01*
X280091Y294935D01*
X276809Y294935D01*
X276809Y297014D02*
X280091Y297014D01*
X280091Y299093D02*
X276809Y299093D01*
X276809Y301172D02*
X280091Y301172D01*
X280091Y303251D02*
X276809Y303251D01*
X276809Y305330D02*
X280091Y305330D01*
X280091Y307409D02*
X276809Y307409D01*
X284809Y307439D02*
X284809Y294935D01*
X284809Y307439D02*
X288091Y307439D01*
X288091Y294935D01*
X284809Y294935D01*
X284809Y297014D02*
X288091Y297014D01*
X288091Y299093D02*
X284809Y299093D01*
X284809Y301172D02*
X288091Y301172D01*
X288091Y303251D02*
X284809Y303251D01*
X284809Y305330D02*
X288091Y305330D01*
X288091Y307409D02*
X284809Y307409D01*
X292809Y307439D02*
X292809Y294935D01*
X292809Y307439D02*
X296091Y307439D01*
X296091Y294935D01*
X292809Y294935D01*
X292809Y297014D02*
X296091Y297014D01*
X296091Y299093D02*
X292809Y299093D01*
X292809Y301172D02*
X296091Y301172D01*
X296091Y303251D02*
X292809Y303251D01*
X292809Y305330D02*
X296091Y305330D01*
X296091Y307409D02*
X292809Y307409D01*
X300809Y307439D02*
X300809Y294935D01*
X300809Y307439D02*
X304091Y307439D01*
X304091Y294935D01*
X300809Y294935D01*
X300809Y297014D02*
X304091Y297014D01*
X304091Y299093D02*
X300809Y299093D01*
X300809Y301172D02*
X304091Y301172D01*
X304091Y303251D02*
X300809Y303251D01*
X300809Y305330D02*
X304091Y305330D01*
X304091Y307409D02*
X300809Y307409D01*
X308809Y307439D02*
X308809Y294935D01*
X308809Y307439D02*
X312091Y307439D01*
X312091Y294935D01*
X308809Y294935D01*
X308809Y297014D02*
X312091Y297014D01*
X312091Y299093D02*
X308809Y299093D01*
X308809Y301172D02*
X312091Y301172D01*
X312091Y303251D02*
X308809Y303251D01*
X308809Y305330D02*
X312091Y305330D01*
X312091Y307409D02*
X308809Y307409D01*
X316809Y307439D02*
X316809Y294935D01*
X316809Y307439D02*
X320091Y307439D01*
X320091Y294935D01*
X316809Y294935D01*
X316809Y297014D02*
X320091Y297014D01*
X320091Y299093D02*
X316809Y299093D01*
X316809Y301172D02*
X320091Y301172D01*
X320091Y303251D02*
X316809Y303251D01*
X316809Y305330D02*
X320091Y305330D01*
X320091Y307409D02*
X316809Y307409D01*
X324809Y307439D02*
X324809Y294935D01*
X324809Y307439D02*
X328091Y307439D01*
X328091Y294935D01*
X324809Y294935D01*
X324809Y297014D02*
X328091Y297014D01*
X328091Y299093D02*
X324809Y299093D01*
X324809Y301172D02*
X328091Y301172D01*
X328091Y303251D02*
X324809Y303251D01*
X324809Y305330D02*
X328091Y305330D01*
X328091Y307409D02*
X324809Y307409D01*
D17*
X87884Y56600D03*
X87884Y19600D03*
X140716Y19600D03*
X140716Y56600D03*
X140716Y375200D03*
X140716Y412200D03*
X87884Y412200D03*
X87884Y375200D03*
M02*
