G04 EAGLE Gerber RS-274X export*
G75*
%MOMM*%
%FSLAX34Y34*%
%LPD*%
%INSoldermask Top*%
%IPPOS*%
%AMOC8*
5,1,8,0,0,1.08239X$1,22.5*%
G01*
%ADD10R,0.453200X0.553200*%
%ADD11P,1.649562X8X22.500000*%
%ADD12R,0.553200X0.453200*%
%ADD13P,1.649562X8X292.500000*%
%ADD14C,1.727200*%
%ADD15R,0.923200X1.283200*%
%ADD16R,0.703200X0.503200*%
%ADD17C,0.450047*%
%ADD18P,1.649562X8X202.500000*%
%ADD19P,1.649562X8X112.500000*%
%ADD20C,1.517400*%
%ADD21C,0.420166*%
%ADD22R,1.503200X1.503200*%
%ADD23R,2.303200X2.303200*%
%ADD24C,3.203200*%
%ADD25R,1.727200X1.727200*%
%ADD26C,1.727200*%
%ADD27R,1.905000X1.193800*%
%ADD28C,0.959600*%


D10*
X746800Y127000D03*
X751800Y127000D03*
X403900Y342900D03*
X408900Y342900D03*
X746800Y139700D03*
X751800Y139700D03*
X746800Y114300D03*
X751800Y114300D03*
X313650Y406400D03*
X308650Y406400D03*
X403900Y381000D03*
X408900Y381000D03*
X403900Y368300D03*
X408900Y368300D03*
X403900Y355600D03*
X408900Y355600D03*
X403900Y317500D03*
X408900Y317500D03*
X403900Y304800D03*
X408900Y304800D03*
D11*
X584200Y304800D03*
X609600Y304800D03*
D12*
X546100Y289600D03*
X546100Y294600D03*
X558800Y289600D03*
X558800Y294600D03*
D13*
X374650Y361950D03*
X374650Y336550D03*
D10*
X403900Y330200D03*
X408900Y330200D03*
D14*
X855980Y38100D02*
X871220Y38100D01*
X871220Y63500D02*
X855980Y63500D01*
X855980Y88900D02*
X871220Y88900D01*
X871220Y114300D02*
X855980Y114300D01*
X855980Y139700D02*
X871220Y139700D01*
D15*
X120100Y124850D03*
X139700Y124850D03*
X159300Y124850D03*
X159300Y154550D03*
X139700Y154550D03*
X120100Y154550D03*
D16*
X121920Y139700D03*
D17*
X128434Y138434D02*
X150966Y138434D01*
X128434Y138434D02*
X128434Y140966D01*
X150966Y140966D01*
X150966Y138434D01*
D18*
X647700Y38100D03*
X571500Y38100D03*
D11*
X571500Y88900D03*
X647700Y88900D03*
D19*
X533400Y317500D03*
X533400Y393700D03*
X431800Y317500D03*
X431800Y393700D03*
X482600Y317500D03*
X482600Y393700D03*
D13*
X457200Y393700D03*
X457200Y317500D03*
D19*
X508000Y317500D03*
X508000Y393700D03*
X558800Y317500D03*
X558800Y393700D03*
D18*
X647700Y63500D03*
X571500Y63500D03*
D20*
X584100Y151950D03*
X604100Y151950D03*
X624100Y151950D03*
X644100Y151950D03*
X635100Y279850D03*
X615100Y279850D03*
X595100Y279850D03*
X575100Y279850D03*
D21*
X346424Y316550D02*
X333902Y316550D01*
X346424Y316550D02*
X346424Y313250D01*
X333902Y313250D01*
X333902Y316550D01*
X333902Y324550D02*
X346424Y324550D01*
X346424Y321250D01*
X333902Y321250D01*
X333902Y324550D01*
X333902Y332550D02*
X346424Y332550D01*
X346424Y329250D01*
X333902Y329250D01*
X333902Y332550D01*
X333902Y340550D02*
X346424Y340550D01*
X346424Y337250D01*
X333902Y337250D01*
X333902Y340550D01*
X333902Y348550D02*
X346424Y348550D01*
X346424Y345250D01*
X333902Y345250D01*
X333902Y348550D01*
X333902Y356550D02*
X346424Y356550D01*
X346424Y353250D01*
X333902Y353250D01*
X333902Y356550D01*
X333902Y364550D02*
X346424Y364550D01*
X346424Y361250D01*
X333902Y361250D01*
X333902Y364550D01*
X333902Y372550D02*
X346424Y372550D01*
X346424Y369250D01*
X333902Y369250D01*
X333902Y372550D01*
X324800Y378352D02*
X324800Y390874D01*
X328100Y390874D01*
X328100Y378352D01*
X324800Y378352D01*
X324800Y382344D02*
X328100Y382344D01*
X328100Y386336D02*
X324800Y386336D01*
X324800Y390328D02*
X328100Y390328D01*
X316800Y390874D02*
X316800Y378352D01*
X316800Y390874D02*
X320100Y390874D01*
X320100Y378352D01*
X316800Y378352D01*
X316800Y382344D02*
X320100Y382344D01*
X320100Y386336D02*
X316800Y386336D01*
X316800Y390328D02*
X320100Y390328D01*
X308800Y390874D02*
X308800Y378352D01*
X308800Y390874D02*
X312100Y390874D01*
X312100Y378352D01*
X308800Y378352D01*
X308800Y382344D02*
X312100Y382344D01*
X312100Y386336D02*
X308800Y386336D01*
X308800Y390328D02*
X312100Y390328D01*
X300800Y390874D02*
X300800Y378352D01*
X300800Y390874D02*
X304100Y390874D01*
X304100Y378352D01*
X300800Y378352D01*
X300800Y382344D02*
X304100Y382344D01*
X304100Y386336D02*
X300800Y386336D01*
X300800Y390328D02*
X304100Y390328D01*
X292800Y390874D02*
X292800Y378352D01*
X292800Y390874D02*
X296100Y390874D01*
X296100Y378352D01*
X292800Y378352D01*
X292800Y382344D02*
X296100Y382344D01*
X296100Y386336D02*
X292800Y386336D01*
X292800Y390328D02*
X296100Y390328D01*
X284800Y390874D02*
X284800Y378352D01*
X284800Y390874D02*
X288100Y390874D01*
X288100Y378352D01*
X284800Y378352D01*
X284800Y382344D02*
X288100Y382344D01*
X288100Y386336D02*
X284800Y386336D01*
X284800Y390328D02*
X288100Y390328D01*
X276800Y390874D02*
X276800Y378352D01*
X276800Y390874D02*
X280100Y390874D01*
X280100Y378352D01*
X276800Y378352D01*
X276800Y382344D02*
X280100Y382344D01*
X280100Y386336D02*
X276800Y386336D01*
X276800Y390328D02*
X280100Y390328D01*
X268800Y390874D02*
X268800Y378352D01*
X268800Y390874D02*
X272100Y390874D01*
X272100Y378352D01*
X268800Y378352D01*
X268800Y382344D02*
X272100Y382344D01*
X272100Y386336D02*
X268800Y386336D01*
X268800Y390328D02*
X272100Y390328D01*
X262998Y372550D02*
X250476Y372550D01*
X262998Y372550D02*
X262998Y369250D01*
X250476Y369250D01*
X250476Y372550D01*
X250476Y364550D02*
X262998Y364550D01*
X262998Y361250D01*
X250476Y361250D01*
X250476Y364550D01*
X250476Y356550D02*
X262998Y356550D01*
X262998Y353250D01*
X250476Y353250D01*
X250476Y356550D01*
X250476Y348550D02*
X262998Y348550D01*
X262998Y345250D01*
X250476Y345250D01*
X250476Y348550D01*
X250476Y340550D02*
X262998Y340550D01*
X262998Y337250D01*
X250476Y337250D01*
X250476Y340550D01*
X250476Y332550D02*
X262998Y332550D01*
X262998Y329250D01*
X250476Y329250D01*
X250476Y332550D01*
X250476Y324550D02*
X262998Y324550D01*
X262998Y321250D01*
X250476Y321250D01*
X250476Y324550D01*
X250476Y316550D02*
X262998Y316550D01*
X262998Y313250D01*
X250476Y313250D01*
X250476Y316550D01*
X268800Y307448D02*
X268800Y294926D01*
X268800Y307448D02*
X272100Y307448D01*
X272100Y294926D01*
X268800Y294926D01*
X268800Y298918D02*
X272100Y298918D01*
X272100Y302910D02*
X268800Y302910D01*
X268800Y306902D02*
X272100Y306902D01*
X276800Y307448D02*
X276800Y294926D01*
X276800Y307448D02*
X280100Y307448D01*
X280100Y294926D01*
X276800Y294926D01*
X276800Y298918D02*
X280100Y298918D01*
X280100Y302910D02*
X276800Y302910D01*
X276800Y306902D02*
X280100Y306902D01*
X284800Y307448D02*
X284800Y294926D01*
X284800Y307448D02*
X288100Y307448D01*
X288100Y294926D01*
X284800Y294926D01*
X284800Y298918D02*
X288100Y298918D01*
X288100Y302910D02*
X284800Y302910D01*
X284800Y306902D02*
X288100Y306902D01*
X292800Y307448D02*
X292800Y294926D01*
X292800Y307448D02*
X296100Y307448D01*
X296100Y294926D01*
X292800Y294926D01*
X292800Y298918D02*
X296100Y298918D01*
X296100Y302910D02*
X292800Y302910D01*
X292800Y306902D02*
X296100Y306902D01*
X300800Y307448D02*
X300800Y294926D01*
X300800Y307448D02*
X304100Y307448D01*
X304100Y294926D01*
X300800Y294926D01*
X300800Y298918D02*
X304100Y298918D01*
X304100Y302910D02*
X300800Y302910D01*
X300800Y306902D02*
X304100Y306902D01*
X308800Y307448D02*
X308800Y294926D01*
X308800Y307448D02*
X312100Y307448D01*
X312100Y294926D01*
X308800Y294926D01*
X308800Y298918D02*
X312100Y298918D01*
X312100Y302910D02*
X308800Y302910D01*
X308800Y306902D02*
X312100Y306902D01*
X316800Y307448D02*
X316800Y294926D01*
X316800Y307448D02*
X320100Y307448D01*
X320100Y294926D01*
X316800Y294926D01*
X316800Y298918D02*
X320100Y298918D01*
X320100Y302910D02*
X316800Y302910D01*
X316800Y306902D02*
X320100Y306902D01*
X324800Y307448D02*
X324800Y294926D01*
X324800Y307448D02*
X328100Y307448D01*
X328100Y294926D01*
X324800Y294926D01*
X324800Y298918D02*
X328100Y298918D01*
X328100Y302910D02*
X324800Y302910D01*
X324800Y306902D02*
X328100Y306902D01*
D22*
X901700Y228600D03*
X901700Y203200D03*
D23*
X393200Y42350D03*
X351200Y42350D03*
X309200Y42350D03*
X267200Y42350D03*
X267200Y97350D03*
X309200Y97350D03*
X351200Y97350D03*
X393200Y97350D03*
D24*
X440200Y92750D03*
X220200Y92750D03*
D23*
X833300Y321750D03*
X791300Y321750D03*
X749300Y321750D03*
X707300Y321750D03*
X665300Y321750D03*
X707300Y376750D03*
X665300Y376750D03*
X749300Y376750D03*
X791300Y376750D03*
X833300Y376750D03*
D24*
X880300Y372150D03*
X618300Y372150D03*
D25*
X26576Y133858D03*
D26*
X26576Y88900D03*
X91600Y88900D03*
X91600Y133858D03*
D25*
X26576Y337058D03*
D26*
X26576Y292100D03*
X91600Y292100D03*
X91600Y337058D03*
D25*
X328676Y235458D03*
D26*
X328676Y190500D03*
X393700Y190500D03*
X393700Y235458D03*
D27*
X87884Y56600D03*
X87884Y19600D03*
X140716Y19600D03*
X140716Y56600D03*
X140716Y375200D03*
X140716Y412200D03*
X87884Y412200D03*
X87884Y375200D03*
D28*
X323850Y330200D03*
X393700Y107950D03*
X393700Y177800D03*
X806450Y311150D03*
X863600Y158750D03*
X355961Y346512D03*
X508000Y57150D03*
X704850Y107950D03*
X69850Y355600D03*
X69850Y400050D03*
X292100Y368300D03*
X292100Y342900D03*
X316384Y316384D03*
X565150Y279400D03*
X742950Y355600D03*
X901700Y260350D03*
X825500Y336550D03*
X571500Y393700D03*
X254000Y13942D03*
X501650Y387350D03*
X533400Y285750D03*
X519045Y312805D03*
X324869Y354900D03*
X355600Y355600D03*
X431800Y304800D03*
X395355Y331855D03*
X215900Y298450D03*
X325280Y368300D03*
X819150Y152400D03*
X839072Y261222D03*
X736600Y114300D03*
X590550Y13942D03*
X361950Y413230D03*
X105575Y152880D03*
X170334Y128116D03*
X508000Y107950D03*
X412750Y273050D03*
X368300Y298930D03*
X386870Y317500D03*
X431800Y273050D03*
X533400Y114300D03*
X312266Y350366D03*
X450850Y311630D03*
X584200Y349250D03*
X736600Y393700D03*
X463550Y400050D03*
X698500Y330200D03*
X438150Y387350D03*
X736600Y317980D03*
X539750Y323850D03*
X374650Y406400D03*
X419100Y317500D03*
X292100Y330618D03*
X336550Y50800D03*
X279400Y342900D03*
X292100Y50800D03*
X273050Y355600D03*
X273050Y107950D03*
X285750Y355600D03*
X298450Y107950D03*
X304800Y361950D03*
X336550Y107950D03*
M02*
