G04 EAGLE Gerber RS-274X export*
G75*
%MOMM*%
%FSLAX34Y34*%
%LPD*%
%INSoldermask Bottom*%
%IPPOS*%
%AMOC8*
5,1,8,0,0,1.08239X$1,22.5*%
G01*
%ADD10P,1.649562X8X22.500000*%
%ADD11P,1.649562X8X292.500000*%
%ADD12C,1.727200*%
%ADD13P,1.649562X8X202.500000*%
%ADD14P,1.649562X8X112.500000*%
%ADD15C,1.517400*%
%ADD16R,1.503200X1.503200*%
%ADD17R,2.303200X2.303200*%
%ADD18C,3.203200*%
%ADD19R,1.727200X1.727200*%
%ADD20C,1.727200*%
%ADD21C,0.959600*%


D10*
X584200Y304800D03*
X609600Y304800D03*
D11*
X374650Y361950D03*
X374650Y336550D03*
D12*
X855980Y38100D02*
X871220Y38100D01*
X871220Y63500D02*
X855980Y63500D01*
X855980Y88900D02*
X871220Y88900D01*
X871220Y114300D02*
X855980Y114300D01*
X855980Y139700D02*
X871220Y139700D01*
D13*
X647700Y38100D03*
X571500Y38100D03*
D10*
X571500Y88900D03*
X647700Y88900D03*
D14*
X533400Y317500D03*
X533400Y393700D03*
X431800Y317500D03*
X431800Y393700D03*
X482600Y317500D03*
X482600Y393700D03*
D11*
X457200Y393700D03*
X457200Y317500D03*
D14*
X508000Y317500D03*
X508000Y393700D03*
X558800Y317500D03*
X558800Y393700D03*
D13*
X647700Y63500D03*
X571500Y63500D03*
D15*
X584100Y151950D03*
X604100Y151950D03*
X624100Y151950D03*
X644100Y151950D03*
X635100Y279850D03*
X615100Y279850D03*
X595100Y279850D03*
X575100Y279850D03*
D16*
X901700Y228600D03*
X901700Y203200D03*
D17*
X393200Y42350D03*
X351200Y42350D03*
X309200Y42350D03*
X267200Y42350D03*
X267200Y97350D03*
X309200Y97350D03*
X351200Y97350D03*
X393200Y97350D03*
D18*
X440200Y92750D03*
X220200Y92750D03*
D17*
X833300Y321750D03*
X791300Y321750D03*
X749300Y321750D03*
X707300Y321750D03*
X665300Y321750D03*
X707300Y376750D03*
X665300Y376750D03*
X749300Y376750D03*
X791300Y376750D03*
X833300Y376750D03*
D18*
X880300Y372150D03*
X618300Y372150D03*
D19*
X26576Y133858D03*
D20*
X26576Y88900D03*
X91600Y88900D03*
X91600Y133858D03*
D19*
X26576Y337058D03*
D20*
X26576Y292100D03*
X91600Y292100D03*
X91600Y337058D03*
D19*
X328676Y235458D03*
D20*
X328676Y190500D03*
X393700Y190500D03*
X393700Y235458D03*
D21*
X323850Y330200D03*
X393700Y107950D03*
X393700Y177800D03*
X806450Y311150D03*
X863600Y158750D03*
X355961Y346512D03*
X508000Y57150D03*
X704850Y107950D03*
X69850Y355600D03*
X69850Y400050D03*
X292100Y368300D03*
X292100Y342900D03*
X316384Y316384D03*
X565150Y279400D03*
X742950Y355600D03*
X901700Y260350D03*
X825500Y336550D03*
X571500Y393700D03*
X254000Y13942D03*
X501650Y387350D03*
X533400Y285750D03*
X519045Y312805D03*
X324869Y354900D03*
X355600Y355600D03*
X431800Y304800D03*
X395355Y331855D03*
X215900Y298450D03*
X325280Y368300D03*
X819150Y152400D03*
X839072Y261222D03*
X736600Y114300D03*
X590550Y13942D03*
X361950Y413230D03*
X105575Y152880D03*
X170334Y128116D03*
X508000Y107950D03*
X412750Y273050D03*
X368300Y298930D03*
X386870Y317500D03*
X431800Y273050D03*
X533400Y114300D03*
X312266Y350366D03*
X450850Y311630D03*
X584200Y349250D03*
X736600Y393700D03*
X463550Y400050D03*
X698500Y330200D03*
X438150Y387350D03*
X736600Y317980D03*
X539750Y323850D03*
X374650Y406400D03*
X419100Y317500D03*
X292100Y330618D03*
X336550Y50800D03*
X279400Y342900D03*
X292100Y50800D03*
X273050Y355600D03*
X273050Y107950D03*
X285750Y355600D03*
X298450Y107950D03*
X304800Y361950D03*
X336550Y107950D03*
M02*
