M48
;GenerationSoftware,Autodesk,EAGLE,9.6.0*%
;CreationDate,2020-03-25T11:40:28Z*%
FMAT,2
ICI,OFF
METRIC,TZ,000.000
T7C0.350
T6C0.700
T5C0.714
T4C0.813
T3C1.016
T2C1.400
T1C3.000
%
G90
M71
T1
X44020Y9275
X61830Y37215
X22020Y9275
X88030Y37215
T2
X66530Y37675
X66530Y32175
X70730Y32175
X74930Y32175
X79130Y32175
X83330Y32175
X39320Y9735
X35120Y9735
X30920Y9735
X26720Y9735
X26720Y4235
X30920Y4235
X35120Y4235
X39320Y4235
X70730Y37675
X83330Y37675
X79130Y37675
X74930Y37675
T3
X86360Y6350
X86360Y3810
X39370Y23546
X86360Y11430
X86360Y8890
X39370Y19050
X32868Y19050
X32868Y23546
X9160Y33706
X9160Y29210
X2658Y29210
X2658Y33706
X9160Y13386
X9160Y8890
X2658Y8890
X2658Y13386
X86360Y13970
T4
X55880Y31750
X55880Y39370
X64770Y6350
X57150Y6350
X58420Y30480
X43180Y39370
X60960Y30480
X37465Y36195
X37465Y33655
X64770Y3810
X57150Y3810
X57150Y8890
X64770Y8890
X53340Y31750
X53340Y39370
X43180Y31750
X48260Y31750
X48260Y39370
X45720Y39370
X45720Y31750
X50800Y31750
X50800Y39370
T5
X62410Y15195
X64410Y15195
X63510Y27985
X58410Y15195
X60410Y15195
X61510Y27985
X59510Y27985
X57510Y27985
T6
X90170Y22860
X90170Y20320
T7
X35596Y34651
X50800Y5715
X70485Y10795
X6985Y35560
X6985Y40005
X29210Y36830
X29210Y34290
X31638Y31638
X56515Y27940
X74295Y35560
X90170Y26035
X57150Y39370
X25400Y1394
X50165Y38735
X53340Y28575
X51905Y31280
X32487Y35490
X35560Y35560
X43180Y30480
X39535Y33185
X21590Y29845
X30480Y36195
X29845Y10795
X28575Y35560
X27305Y10795
X33655Y10795
X37465Y40640
X32385Y33020
X39370Y10795
X27305Y35560
X39370Y17780
X80645Y31115
X29210Y5080
X27940Y34290
X33655Y5080
X29210Y33062
X41910Y31750
X53975Y32385
X73660Y31798
X43815Y38735
X69850Y33020
X46355Y40005
X73660Y39370
X86360Y15875
X45085Y31163
X82550Y33655
X31227Y35037
X53340Y11430
X43180Y27305
X38687Y31750
X36830Y29893
X41275Y27305
X58420Y34925
X17033Y12812
X10558Y15288
X36195Y41323
X59055Y1394
X73660Y11430
X83907Y26122
X81915Y15240
X32528Y36830
X50800Y10795
M30